<?xml version="1.0" encoding="UTF-8"?>
<svg version="1.1" viewBox="0 0 1600 1064" width="1280" height="1280" xmlns="http://www.w3.org/2000/svg">
<path transform="translate(0)" d="m0 0h1600v1064h-1600v-1064z" fill="#FDFDFD"/>
<path transform="translate(1521 697)" d="m0 0c3.06 1.14 3.31 1.7 4.94 4.38 3.05 4.6 6.52 5.43 11.8 6.62 4.84 0.734 9.69 1.19 14.6 1.62 1.34 0.129 2.69 0.26 4.03 0.391 5.6 0.537 11.2 1.03 16.8 1.18 0.743 0.023 1.49 0.0461 2.25 0.0698 1.86 0.0401 3.73 0.0379 5.6 0.0317 1.36 0.346 1.36 0.346 2.74 0.699 2.39 4.06 3.76 8.16 5.01 12.7 0.347 1.26 0.694 2.51 1.05 3.81 0.175 0.648 0.35 1.3 0.531 1.96 0.534 1.97 1.08 3.94 1.63 5.91 1.61 5.88 3.01 11.6 3.79 17.6 1.32 0.33 2.64 0.66 4 1v309h-512c1.15-5.77 2.27-11.3 3.78-17 0.167-0.628 0.334-1.26 0.506-1.9 0.549-2.06 1.1-4.12 1.65-6.19 0.396-1.49 0.792-2.97 1.19-4.46 1.29-4.83 2.58-9.65 3.88-14.5 0.222-0.829 0.445-1.66 0.674-2.51 2.08-7.76 4.16-15.5 6.24-23.3 2.64-9.84 5.27-19.7 7.87-29.5 3.92-14.9 7.9-29.7 11.9-44.6 0.294-1.09 0.587-2.18 0.89-3.3 3.11-11.6 6.23-23.1 9.35-34.7 1.28-4.73 2.56-9.46 3.84-14.2 0.608-2.25 1.22-4.5 1.83-6.74 4.5-16.5 4.5-16.5 8.41-33.2-8.33-3.82-16.8-7.14-25.4-10.5-1.08-0.427-2.16-0.853-3.28-1.29-1.47-0.575-1.47-0.575-2.97-1.16-2.38-1.08-2.38-1.08-4.38-3.08 0.223-8.45 2.58-17 4.5-25.2 0.213-0.921 0.427-1.84 0.647-2.79 0.209-0.867 0.419-1.73 0.635-2.63 0.279-1.16 0.279-1.16 0.564-2.35 0.654-2.05 0.654-2.05 2.65-5.05 3.66 1.22 4.36 2.47 6.69 5.5 4.3 5.39 8.89 10.4 13.6 15.4 1.04 1.1 1.04 1.1 2.1 2.22 3.15 3.32 6.32 6.63 9.59 9.84 2.65-3.97 2.8-7.61 3.44-12.3 0.562-2.71 0.562-2.71 2.56-4.71 7.51-0.642 15.2 0.00173 22.8 0.438 0.691 0.0391 1.38 0.0781 2.09 0.118 4.91 0.321 4.91 0.321 7.16 1.44-1.98-4.77-4.15-9.32-6.59-13.9-0.511-0.958-0.511-0.958-1.03-1.94-1.1-2.06-2.21-4.13-3.31-6.19-1.53-2.87-3.07-5.74-4.6-8.61-0.571-1.07-0.571-1.07-1.15-2.16-3.94-7.38-7.8-14.8-11.6-22.2-0.667-1.29-0.667-1.29-1.35-2.6-0.401-0.779-0.801-1.56-1.21-2.36-1.16-2.22-1.16-2.22-3.05-4.83-1.05-2.2-1.05-2.2-0.5-4.74 4.3-7.32 12-13.1 18.4-18.5 0.705-0.594 1.41-1.19 2.14-1.8 0.697-0.561 1.39-1.12 2.11-1.7 0.624-0.505 1.25-1.01 1.89-1.53 1.86-0.969 1.86-0.969 4.09-0.625 0.874 0.325 0.874 0.325 1.77 0.656 0.205 1.51 0.205 1.51 0.414 3.06 0.55 3.7 1.23 7.34 1.96 11 1.23 6.33 2.15 12.7 2.96 19.1 1.55 11.7 3.65 23.3 5.85 34.9 0.553 2.94 1.11 5.88 1.65 8.82 0.335 1.8 0.674 3.61 1.02 5.41 0.735 3.95 1.36 7.67 1.14 11.7 0.944 0.105 0.944 0.105 1.91 0.212 0.902 0.1 1.8 0.2 2.73 0.304 1.03 0.115 2.07 0.23 3.14 0.348 2.35 0.261 4.69 0.522 7.04 0.784 6.49 0.723 13 1.44 19.5 2.14 3.3 0.356 6.6 0.715 9.91 1.07 1.63 0.177 3.26 0.352 4.89 0.526 2.3 0.245 4.6 0.495 6.9 0.747 0.697 0.0728 1.39 0.146 2.11 0.221 4.8 0.533 4.8 0.533 5.91 1.65 0.406 4.85 0.283 9.55-1 14.2-0.934 3.5-1.33 6.16-1 9.75 0.66 0.99 1.32 1.98 2 3 0.0606-1.26 0.121-2.53 0.184-3.83 0.0844-1.66 0.169-3.32 0.254-4.98 0.0393-0.833 0.0786-1.67 0.119-2.53 0.0419-0.802 0.0838-1.6 0.127-2.43 0.055-1.11 0.055-1.11 0.111-2.24 0.205-1.99 0.205-1.99 1.21-4.99 0.0387-1.67 0.045-3.33 0-5 10.2-0.319 19.9 0.649 30 2-0.136-1.31-0.136-1.31-0.275-2.64-0.341-3.3-0.675-6.59-1.01-9.89-0.143-1.41-0.289-2.83-0.437-4.24-2.65-25.4-2.65-25.4 0.0547-29 9.75-7.18 26-9.24 37.7-10.2 8.57 14 5.92 32.5 3.45 48-0.55 3.74-0.599 7.26-0.445 11h3c2.46-17.5 4.93-35.4 2-53 3.1-0.977 4.47-1.27 7.43 0.223 2.54 1.91 5.07 3.82 7.57 5.78 0.634 0.468 1.27 0.936 1.92 1.42 9.06 7.09 16.3 18.1 18.1 29.6 0.95 12.2-0.513 24-2.44 36.1-0.115 0.724-0.23 1.45-0.349 2.19-1.98 12.3-1.98 12.3-3.21 14.7 0.279 1.68 0.608 3.35 1 5h2c0.164-1.09 0.164-1.09 0.332-2.21 1.04-6.83 2.12-13.7 3.23-20.5 0.127-0.79 0.253-1.58 0.384-2.39 0.938-5.69 0.938-5.69 2.05-7.92 0.535-3.32 0.765-6.65 1-10 0.101-1.37 0.101-1.37 0.203-2.77 0.611-16-4.71-30.1-15.3-42-5.86-5.4-14-10.1-21.7-12.2-3.19-0.957-3.19-0.957-5.19-3.96 4.79-3.45 10.1-4.51 15.7-5.88 1.04-0.26 2.08-0.519 3.15-0.787 2.2-0.547 4.39-1.09 6.59-1.63 3.35-0.822 6.69-1.66 10-2.49 2.14-0.531 4.28-1.06 6.42-1.59 0.993-0.248 1.99-0.496 3.01-0.751 5.37-1.31 10.6-2.31 16.1-2.87 1.93 4.32 2.9 8.73 3.84 13.3 0.344 1.64 0.689 3.28 1.03 4.91 0.533 2.56 1.06 5.13 1.59 7.69 0.514 2.49 1.04 4.97 1.56 7.46 0.153 0.758 0.306 1.52 0.464 2.3 1.01 4.75 2.35 8.95 4.51 13.3l2 1c-0.726-3.69-1.46-7.38-2.19-11.1-0.221-1.12-0.442-2.24-0.67-3.39-1.14-5.73-2.33-11.5-3.62-17.2-0.234-1.03-0.467-2.07-0.708-3.13-0.45-1.97-0.907-3.94-1.37-5.91-0.203-0.895-0.407-1.79-0.616-2.71-0.183-0.778-0.366-1.56-0.554-2.36-0.308-2.64 0.169-4.7 0.734-7.28 62.9-15.8 62.9-15.8 84-20.9 1.54-0.377 3.08-0.755 4.62-1.13 2.08-0.513 4.17-1.02 6.25-1.53 1.13-0.275 2.25-0.55 3.42-0.834 2.72-0.572 2.72-0.572 5.72-0.572 1.76 6.79 3.4 13.6 4.94 20.4 0.168 0.745 0.336 1.49 0.509 2.26 0.958 4.34 1.82 8.68 2.59 13.1 0.172 0.957 0.343 1.91 0.52 2.9 0.331 1.87 0.651 3.74 0.958 5.62 0.225 1.27 0.225 1.27 0.455 2.57 0.126 0.755 0.253 1.51 0.383 2.29 0.566 2.25 0.566 2.25 3.64 3.87-1.69-13.6-4.09-26.9-7.02-40.2-0.256-1.18-0.511-2.37-0.775-3.59-0.232-1.05-0.465-2.1-0.704-3.18-0.512-3.06-0.593-5.91-0.503-9.01 2-1 2-1 4.31-1z" fill="#C7CACB"/>
<path transform="translate(1521 697)" d="m0 0c3.06 1.14 3.31 1.7 4.94 4.38 3.05 4.6 6.52 5.43 11.8 6.62 4.84 0.734 9.69 1.19 14.6 1.62 1.34 0.129 2.69 0.26 4.03 0.391 5.6 0.537 11.2 1.03 16.8 1.18 0.743 0.023 1.49 0.0461 2.25 0.0698 1.86 0.0401 3.73 0.0379 5.6 0.0317 1.36 0.346 1.36 0.346 2.74 0.699 2.39 4.06 3.76 8.16 5.01 12.7 0.347 1.26 0.694 2.51 1.05 3.81 0.175 0.648 0.35 1.3 0.531 1.96 0.534 1.97 1.08 3.94 1.63 5.91 1.61 5.88 3.01 11.6 3.79 17.6 1.32 0.33 2.64 0.66 4 1v309h-183c2.13-17 2.13-17 3.07-23.5 2.14-14.8 3.47-29.7 4.86-44.6 0.751-8.02 1.52-16 2.3-24.1 0.114-1.18 0.114-1.18 0.231-2.39 1.26-12.9 2.64-25.9 4.23-38.8 0.0993-0.815 0.199-1.63 0.301-2.47 0.569-4.66 1.15-9.32 1.73-14 3.37-25.9 3.37-25.9 4.72-51.9 0.0101-0.934 0.0201-1.87 0.0305-2.83 0.123-4.47 0.123-4.47-1.8-8.31-3.15-2.44-6.94-2.46-10.8-2.09-0.737 0.098-1.47 0.196-2.23 0.297-4.71 0.623-8.94 0.156-13.6-0.5-2.22-0.213-4.44-0.421-6.66-0.621-2.34-0.379-2.34-0.379-5.59-1.32-4.73-1.33-9.48-2.13-14.3-2.91-1.82-0.318-3.63-0.724-5.43-1.14-1.35-2.71-0.783-4.19-0.258-7.16 0.179-1.02 0.358-2.04 0.543-3.1 0.195-1.07 0.389-2.14 0.59-3.25 0.187-1.07 0.374-2.14 0.566-3.25 1.42-7.97 1.42-7.97 2.56-10.3 0.535-3.32 0.765-6.65 1-10 0.067-0.913 0.134-1.83 0.203-2.77 0.611-16-4.71-30.1-15.3-42-5.86-5.4-14-10.1-21.7-12.2-3.19-0.957-3.19-0.957-5.19-3.96 4.79-3.45 10.1-4.51 15.7-5.88 1.04-0.26 2.08-0.519 3.15-0.787 2.2-0.547 4.39-1.09 6.59-1.63 3.35-0.822 6.69-1.66 10-2.49 2.14-0.531 4.28-1.06 6.42-1.59 0.993-0.248 1.99-0.496 3.01-0.751 5.37-1.31 10.6-2.31 16.1-2.87 1.93 4.32 2.9 8.73 3.84 13.3 0.344 1.64 0.689 3.28 1.03 4.91 0.533 2.56 1.06 5.13 1.59 7.69 0.514 2.49 1.04 4.97 1.56 7.46 0.153 0.758 0.306 1.52 0.464 2.3 1.01 4.75 2.35 8.95 4.51 13.3l2 1c-0.726-3.69-1.46-7.38-2.19-11.1-0.221-1.12-0.442-2.24-0.67-3.39-1.14-5.73-2.33-11.5-3.62-17.2-0.234-1.03-0.467-2.07-0.708-3.13-0.45-1.97-0.907-3.94-1.37-5.91-0.203-0.895-0.407-1.79-0.616-2.71-0.183-0.778-0.366-1.56-0.554-2.36-0.308-2.64 0.169-4.7 0.734-7.28 62.9-15.8 62.9-15.8 84-20.9 1.54-0.377 3.08-0.755 4.62-1.13 2.08-0.513 4.17-1.02 6.25-1.53 1.13-0.275 2.25-0.55 3.42-0.834 2.72-0.572 2.72-0.572 5.72-0.572 1.76 6.79 3.4 13.6 4.94 20.4 0.168 0.745 0.336 1.49 0.509 2.26 0.958 4.34 1.82 8.68 2.59 13.1 0.172 0.957 0.343 1.91 0.52 2.9 0.331 1.87 0.651 3.74 0.958 5.62 0.15 0.849 0.301 1.7 0.455 2.57 0.126 0.755 0.253 1.51 0.383 2.29 0.566 2.25 0.566 2.25 3.64 3.87-1.69-13.6-4.09-26.9-7.02-40.2-0.256-1.18-0.511-2.37-0.775-3.59-0.232-1.05-0.465-2.1-0.704-3.18-0.512-3.06-0.593-5.91-0.503-9.01 2-1 2-1 4.31-1z" fill="#3B74C0"/>
<path transform="translate(1187 698)" d="m0 0c0.874 0.325 0.874 0.325 1.77 0.656 0.205 1.51 0.205 1.51 0.414 3.06 0.55 3.7 1.23 7.34 1.96 11 1.23 6.33 2.15 12.7 2.96 19.1 1.55 11.7 3.65 23.3 5.85 34.9 0.553 2.94 1.11 5.88 1.65 8.82 0.335 1.8 0.674 3.61 1.02 5.41 0.735 3.95 1.36 7.67 1.14 11.7 0.944 0.105 0.944 0.105 1.91 0.212 0.902 0.1 1.8 0.2 2.73 0.304 1.03 0.115 2.07 0.23 3.14 0.348 2.35 0.261 4.69 0.522 7.04 0.784 6.49 0.723 13 1.44 19.5 2.14 3.3 0.356 6.6 0.715 9.91 1.07 1.63 0.177 3.26 0.352 4.89 0.526 2.3 0.245 4.6 0.495 6.9 0.747 0.697 0.0728 1.39 0.146 2.11 0.221 4.8 0.533 4.8 0.533 5.91 1.65 0.459 5.47 0.144 10.7-1.4 15.9-0.604 2.1-1.14 4.2-1.67 6.32-0.46 1.86-0.46 1.86-0.93 3.76-0.801-0.121-1.6-0.242-2.43-0.367-3.67-0.551-7.34-1.09-11-1.63-1.26-0.191-2.52-0.382-3.82-0.578-6.66-0.974-13-1.66-19.7-1.42-1.8 4.96-2.88 9.9-3.88 15.1-0.175 0.89-0.35 1.78-0.531 2.7-0.575 2.93-1.14 5.87-1.71 8.8-0.296 1.52-0.296 1.52-0.599 3.07-2.95 15.2-5.73 30.3-8.4 45.6-7.16 40.8-15.9 81.2-25.2 122-3.37 14.7-6.51 29.5-9.68 44.2h-89c1.15-5.77 2.27-11.3 3.78-17 0.167-0.628 0.334-1.26 0.506-1.9 0.549-2.06 1.1-4.12 1.65-6.19 0.396-1.49 0.792-2.97 1.19-4.46 1.29-4.83 2.58-9.65 3.88-14.5 0.222-0.829 0.445-1.66 0.674-2.51 2.08-7.76 4.16-15.5 6.24-23.3 2.64-9.84 5.27-19.7 7.87-29.5 3.92-14.9 7.9-29.7 11.9-44.6 0.294-1.09 0.587-2.18 0.89-3.3 3.11-11.6 6.23-23.1 9.35-34.7 1.28-4.73 2.56-9.46 3.84-14.2 0.608-2.25 1.22-4.5 1.83-6.74 4.5-16.5 4.5-16.5 8.41-33.2-8.33-3.82-16.8-7.14-25.4-10.5-1.08-0.427-2.16-0.853-3.28-1.29-1.47-0.575-1.47-0.575-2.97-1.16-2.38-1.08-2.38-1.08-4.38-3.08 0.223-8.45 2.58-17 4.5-25.2 0.213-0.921 0.427-1.84 0.647-2.79 0.209-0.867 0.419-1.73 0.635-2.63 0.279-1.16 0.279-1.16 0.564-2.35 0.654-2.05 0.654-2.05 2.65-5.05 3.66 1.22 4.36 2.47 6.69 5.5 4.3 5.39 8.89 10.4 13.6 15.4 1.04 1.1 1.04 1.1 2.1 2.22 3.15 3.32 6.32 6.63 9.59 9.84 2.65-3.97 2.8-7.61 3.44-12.3 0.562-2.71 0.562-2.71 2.56-4.71 7.51-0.642 15.2 0.00173 22.8 0.438 0.691 0.0391 1.38 0.0781 2.09 0.118 4.91 0.321 4.91 0.321 7.16 1.44-1.98-4.77-4.15-9.32-6.59-13.9-0.511-0.958-0.511-0.958-1.03-1.94-1.1-2.06-2.21-4.13-3.31-6.19-1.53-2.87-3.07-5.74-4.6-8.61-0.571-1.07-0.571-1.07-1.15-2.16-3.94-7.38-7.8-14.8-11.6-22.2-0.667-1.29-0.667-1.29-1.35-2.6-0.401-0.779-0.801-1.56-1.21-2.36-1.16-2.22-1.16-2.22-3.05-4.83-1.05-2.2-1.05-2.2-0.5-4.74 4.3-7.32 12-13.1 18.4-18.5 0.705-0.594 1.41-1.19 2.14-1.8 0.697-0.561 1.39-1.12 2.11-1.7 0.624-0.505 1.25-1.01 1.89-1.53 1.86-0.969 1.86-0.969 4.09-0.625z" fill="#B7BABC"/>
<path transform="translate(1335,748)" d="m0 0c6.12 6.99 6.46 14.7 6.31 23.6-0.0126 1.59-0.0126 1.59-0.0254 3.21-0.11 7.19-0.708 14.1-1.84 21.2-0.55 3.74-0.599 7.26-0.445 11h3c2.46-17.5 4.93-35.4 2-53 3.1-0.977 4.47-1.27 7.43 0.223 2.54 1.91 5.07 3.82 7.57 5.78 0.634 0.468 1.27 0.936 1.92 1.42 9.06 7.09 16.3 18.1 18.1 29.6 0.95 12.2-0.513 24-2.44 36.1-0.115 0.724-0.23 1.45-0.349 2.19-1.98 12.3-1.98 12.3-3.21 14.7 0.279 1.68 0.608 3.35 1 5h2c0.33-1.65 0.66-3.3 1-5 2.91-0.88 4.99-1.04 7.98-0.512 0.749 0.129 1.5 0.257 2.27 0.389 0.785 0.143 1.57 0.287 2.38 0.435 0.807 0.14 1.61 0.281 2.44 0.425 4.22 0.742 8.42 1.56 12.6 2.45 3.82 0.802 7.4 0.891 11.3 0.812 0.603 0.177 1.21 0.353 1.83 0.535 2.83 0.605 5.18 0.211 8.05-0.16 4.92-0.475 7.98-0.397 12.1 2.62 7.16 14.3-0.903 42.6-2.81 58.1-1.64 13.4-3.08 26.9-4.52 40.3-0.228 2.12-0.458 4.25-0.687 6.37-1.84 17-3.56 34.1-5.1 51.1-3.62 40-3.62 40-7.88 57.1h-21c-0.0731-6.51 0.0289-12.6 1-19 0.0823-3 0.0613-6 0-9h-4c1.22-3.65 2.31-4.12 5.5-6.12 2.9-1.74 2.9-1.74 5.5-3.88 1.58-10.2-5.46-19.3-11.2-27.2-1.15-2.73-0.794-4.01 0.25-6.78 1.95-2.16 3.83-4.03 6-5.94 0.583-0.526 1.17-1.05 1.77-1.59 4.46-3.95 9.1-7.44 14.2-10.5-0.523-2.76-1.11-5.33-2-8-1.81-1.06-1.81-1.06-4-2-1.59-0.981-3.18-1.98-4.75-3-3.33-2.14-6.66-4.26-10-6.33-7.16-4.4-14.1-8.95-20.9-13.9-5.72-4.14-11.7-7.85-17.7-11.5-9.97-6.15-9.97-6.15-12.6-10.2h3v-3c-0.99-0.33-1.98-0.66-3-1 3-2 3-2 5-2v-2c-0.959-0.155-0.959-0.155-1.94-0.312-1.02-0.34-1.02-0.34-2.06-0.688-0.33-0.99-0.66-1.98-1-3-2-1.21-2-1.21-4-2 0.99-0.99 1.98-1.98 3-3-1.48-0.99-1.48-0.99-3-2 1.66-2.21 2.7-3.56 5-5 3.37-0.438 6.62-0.296 10 0-0.153-0.614-0.307-1.23-0.465-1.86-0.512-2.05-1.02-4.09-1.54-6.14-0.763 0.103-1.53 0.206-2.31 0.312-1.33-0.155-1.33-0.155-2.69-0.312-2.24-2.86-3-4.34-3-8-0.66-0.33-1.32-0.66-2-1 0.964-10.6 0.964-10.6 2-15h-2v-2c-0.603-0.0516-1.21-0.103-1.83-0.156-2.59-0.368-4.76-0.808-7.17-1.84-1.32-1.94-2.05-3.84-2.89-6.02-1.96-3.51-5.47-4.63-9.11-5.98 1.32-0.99 2.64-1.98 4-3-1.32-0.99-2.64-1.98-4-3 6.75-2 6.75-2 9-2v-2c-5.3-1.42-10.5-2.43-15.9-3-1.49-0.167-2.99-0.333-4.48-0.5-0.757-0.0825-1.51-0.165-2.29-0.25-5.76-0.63-11.5-1.31-17.3-2-2-0.242-4-0.476-6-0.71-1.23-0.156-2.45-0.312-3.72-0.473-1.08-0.133-2.15-0.266-3.26-0.402-3.38-0.73-6.03-2-9.05-3.66 0.141-2.6 0.287-5.21 0.438-7.81 0.059-1.11 0.059-1.11 0.119-2.24 0.187-3.18 0.431-5.91 1.44-8.95 0.0387-1.67 0.045-3.33 0-5 10.2-0.319 19.9 0.649 30 2-0.0909-0.871-0.182-1.74-0.275-2.64-0.341-3.3-0.675-6.59-1.01-9.89-0.143-1.41-0.289-2.83-0.437-4.24-2.65-25.4-2.65-25.4 0.0547-29 9.46-6.97 25.2-9.11 36.7-10.2z" fill="#B8BBBC"/>
<path transform="translate(1447,943)" d="m0 0c0.527 0.137 1.05 0.273 1.6 0.414 1.81 0.442 3.64 0.847 5.46 1.23 1.67 0.36 1.67 0.36 3.38 0.727 1.11 0.235 2.22 0.469 3.37 0.711 4.9 1.4 8.22 3.67 11.7 7.35 3.36 3.45 6.65 6.57 10.9 8.86 2.91 1.91 4.34 3.76 6.27 6.64 0.581 0.855 1.16 1.71 1.76 2.59 1.33 2.12 2.49 4.21 3.55 6.47h2v2c0.743 0.0825 1.48 0.165 2.25 0.25 3.29 0.897 4.45 2.3 6.75 4.75 1.48 0.495 1.48 0.495 3 1 0.73 1.85 0.73 1.85 1.19 4.06 0.159 0.733 0.317 1.47 0.48 2.22 0.11 0.566 0.219 1.13 0.332 1.71h2v2c0.835 0.371 0.835 0.371 1.69 0.75 2.31 1.25 2.31 1.25 4.62 3.12 4.9 3.88 9.73 6.23 15.7 8.12 3 2 3 2 3.69 4.12 0.103 0.619 0.206 1.24 0.312 1.88h-2c0.33 1.32 0.66 2.64 1 4h-3v-4c-0.949 0.0206-1.9 0.0412-2.88 0.0625-3.12-0.0625-3.12-0.0625-5.12-1.06v-2h-2v-2h-6c0.0702 3.4 0.255 6.68 1 10 2.65 2.3 4.69 2.9 8 4v2c1.98 0.66 3.96 1.32 6 2v5c-1.65 0.33-3.3 0.66-5 1v10h3v2c8.34 2.39 16.3 3.59 25 4v-3c2.47-0.495 2.47-0.495 5-1 0.99 1.48 0.99 1.48 2 3 2.05 1.19 2.05 1.19 4 2-0.33 0.66-0.66 1.32-1 2 0.99 0.33 1.98 0.66 3 1-0.33 1.98-0.66 3.96-1 6 0.598-0.165 1.2-0.33 1.81-0.5 2.19-0.5 2.19-0.5 5.19-0.5 2.79-0.776 5.55-1.59 8.31-2.44 9.83-3.03 9.83-3.03 14.7-3.56 2.84 2.84 1 7.99 1 12h-183c2.14-17.1 2.14-17.1 3.08-23.6 2.14-14.8 3.51-29.8 4.91-44.7 0.339-3.59 0.683-7.19 1.03-10.8 0.667-6.99 1.33-14 1.99-21 0.66 0.33 1.32 0.66 2 1 0.33-1.65 0.66-3.3 1-5 1.45 0.464 1.45 0.464 2.94 0.938 4.3 1.24 8.62 1.68 13.1 2.06v-2c2.64-1.32 5.28-2.64 8-4-1.97-1.97-5.35-1.66-8-2v-2c2.64-0.33 5.28-0.66 8-1-1.18-1.39-1.18-1.39-4.5-1.44-1.15-0.186-2.31-0.371-3.5-0.562-1.33-2.67-0.671-4.17 0-7z" fill="#4980C5"/>
<path transform="translate(1335,748)" d="m0 0c6.12 6.99 6.46 14.7 6.31 23.6-0.0126 1.59-0.0126 1.59-0.0254 3.21-0.11 7.19-0.708 14.1-1.84 21.2-0.55 3.74-0.599 7.26-0.445 11h3c2.46-17.5 4.93-35.4 2-53 3.1-0.977 4.47-1.27 7.43 0.223 2.54 1.91 5.07 3.82 7.57 5.78 0.634 0.468 1.27 0.936 1.92 1.42 9.06 7.09 16.3 18.1 18.1 29.6 1.34 17.2-2.06 34.1-5 51-7.76 2.59-17.5-0.79-25.3-2.5-5.75-1.22-11.5-1.99-17.3-2.67-5.04-0.607-10-1.45-15-2.39-5.12-0.952-10.1-1.64-15.3-1.94-5.58-0.316-11-1.02-16.5-1.94-0.746-0.122-1.49-0.245-2.26-0.371-4.54-0.784-8.89-1.85-13.3-3.19-0.972-3.15-1-5.61-0.625-8.88 0.0993-0.878 0.199-1.76 0.301-2.66 0.254-1.93 0.561-3.86 0.887-5.78 0.427-2.62 0.469-5.04 0.438-7.69 10.2-0.319 19.9 0.649 30 2-0.0909-0.871-0.182-1.74-0.275-2.64-0.341-3.3-0.675-6.59-1.01-9.89-0.143-1.41-0.289-2.83-0.437-4.24-2.65-25.4-2.65-25.4 0.0547-29 9.46-6.97 25.2-9.11 36.7-10.2z" fill="#4D73B3"/>
<path transform="translate(1302,908)" d="m0 0c9.05 1.86 17.1 8.27 24.7 13.3 6.73 4.4 13.6 8.6 20.4 12.8 8.37 5.12 16.6 10.3 24.8 15.8 2.92 1.97 5.88 3.86 8.86 5.72 4.8 3.02 9.38 6.3 13.9 9.68 1.74 1.28 3.52 2.5 5.31 3.7v2c1.48 0.495 1.48 0.495 3 1-3.8 4.16-7.74 6.86-12.6 9.62-5.73 3.02-5.73 3.02-10.4 7.38-0.672 4.26 0.576 6.42 3.03 9.84 0.627 0.9 1.25 1.8 1.9 2.73 1.33 1.87 2.67 3.74 4.01 5.6 3.49 5.02 5.94 8.64 6.06 14.8-2.72 1.83-5.45 3.63-8.19 5.44-1.15 0.774-1.15 0.774-2.33 1.56-0.751 0.493-1.5 0.986-2.28 1.49-0.686 0.456-1.37 0.911-2.08 1.38-2.52 1.33-4.26 2.02-7.13 2.12-3.88-2.42-6.17-5.36-8.63-9.17-0.643-0.975-1.29-1.95-1.95-2.96-1.33-2.05-2.66-4.11-3.98-6.16-0.641-0.971-1.28-1.94-1.94-2.94-0.576-0.891-1.15-1.78-1.74-2.7-1.58-2.15-1.58-2.15-3.71-3.03-2.84-0.0482-3.98 0.935-6.23 2.64-0.781 0.581-1.56 1.16-2.37 1.76-0.807 0.619-1.61 1.24-2.45 1.88-1.6 1.21-3.21 2.41-4.81 3.61-0.708 0.541-1.42 1.08-2.14 1.64-1.95 1.37-3.88 2.43-6.04 3.44-3.96-3.28-4.79-5.97-5.75-11-0.142-0.708-0.284-1.42-0.431-2.15-0.474-2.38-0.926-4.77-1.38-7.15-0.333-1.69-0.667-3.39-1-5.08-0.743-3.76-1.48-7.53-2.2-11.3-1.36-7.04-2.74-14.1-4.13-21.1-1.48-7.51-2.96-15-4.42-22.5-0.229-1.17-0.459-2.35-0.695-3.56-0.43-2.2-0.859-4.41-1.29-6.61-1.02-5.24-2.1-10.5-3.33-15.7-0.513-2.65-0.506-5.22-0.368-7.9z" fill="#3B74C1"/>
<path transform="translate(1293,894)" d="m0 0c5.15 0.397 9.17 2.37 13.6 4.81 0.735 0.397 1.47 0.793 2.23 1.2 9.22 5.04 18.2 10.5 27.1 16 1.28 0.782 1.28 0.782 2.6 1.58 14.2 8.65 28.1 17.8 41.9 27.1 8.21 5.54 16.4 11 25 15.8 4.08 2.47 8.16 5.25 10.5 9.5-0.125 2.4-0.125 2.4-1 5-2.12 1.89-2.12 1.89-4.88 3.69-4.3 2.99-8.39 6.04-12.4 9.44-0.933 0.786-1.87 1.57-2.83 2.38-2.22 2.36-2.22 2.36-1.93 5.46 1.07 3.23 2.4 5.6 4.32 8.41 9.08 13.8 9.08 13.8 7.69 21.6-4.1 4.71-9.85 8.02-15.1 11.2-0.69 0.433-1.38 0.866-2.09 1.31-5.9 3.66-10.6 6.21-17.8 5.44-4.69-2.58-7.22-6.99-10.2-11.3-1.8-2.63-3.66-5.2-5.59-7.74-0.552-0.733-1.1-1.47-1.67-2.22-1.57-1.98-1.57-1.98-4.58-2.71-4.98 1.7-8.94 4.74-13 8-4.02 2.62-7.61 4.77-12.4 5.56-2.62-0.562-2.62-0.562-4.15-2.07-2.04-3.44-2.85-7-3.73-10.9-0.209-0.899-0.418-1.8-0.634-2.73-2.43-10.8-4.35-21.7-6.31-32.6-2.01-11.1-4.16-22.2-6.41-33.2-2.65-13-5.2-26.1-7.39-39.2-0.208-1.23-0.415-2.47-0.629-3.74-1.59-9.77-1.59-9.77-1.37-14.1 0.33-0.33 0.66-0.66 1-1zm9 14c0.548 6.5 1.43 12.8 2.75 19.2 0.174 0.86 0.348 1.72 0.527 2.61 0.57 2.81 1.15 5.63 1.72 8.44 0.817 4.02 1.63 8.05 2.45 12.1 0.209 1.03 0.419 2.07 0.635 3.13 1.51 7.44 2.97 14.9 4.41 22.4 0.201 1.04 0.402 2.08 0.609 3.15 0.782 4.04 1.56 8.08 2.34 12.1 2.34 12.3 2.34 12.3 5.07 24.6 0.195 0.809 0.39 1.62 0.59 2.45 1.17 2.42 2.44 2.93 4.9 3.87 0.53-0.383 1.06-0.767 1.6-1.16 2.4-1.74 4.8-3.48 7.21-5.21 0.833-0.603 1.67-1.21 2.53-1.83 0.802-0.58 1.6-1.16 2.43-1.76 0.738-0.534 1.48-1.07 2.24-1.62 4.82-3.43 4.82-3.43 7.02-3.25 2.39 1.01 3.12 1.95 4.52 4.11 0.448 0.673 0.896 1.35 1.36 2.04 0.464 0.719 0.927 1.44 1.4 2.18 0.976 1.46 1.95 2.92 2.93 4.38 0.472 0.708 0.943 1.42 1.43 2.15 1.68 2.51 3.41 4.98 5.2 7.41 0.492 0.679 0.985 1.36 1.49 2.06 2.18 2.01 3.7 2.21 6.63 2.5 2.27-0.828 2.27-0.828 4.39-2.27 0.791-0.495 1.58-0.99 2.4-1.5 0.812-0.529 1.62-1.06 2.46-1.6 1.24-0.781 1.24-0.781 2.51-1.58 3.82-2.27 3.82-2.27 7.24-5.05 0.00977-7.25-3.97-11.9-8.06-17.6-1.31-1.84-2.62-3.68-3.91-5.54-0.58-0.809-1.16-1.62-1.76-2.45-1.47-2.75-1.72-4.31-1.27-7.38 4.59-4.61 10.2-7.59 15.8-10.8 3.21-1.86 5.13-3.09 7.21-6.22-1.48-0.495-1.48-0.495-3-1v-2c-1.91-1.58-1.91-1.58-4.38-3.19-0.917-0.623-1.83-1.25-2.78-1.89-0.94-0.636-1.88-1.27-2.85-1.93-1.65-1.16-3.29-2.33-4.94-3.5-3.37-2.36-6.78-4.62-10.2-6.82-3.6-2.28-7.2-4.57-10.8-6.87-11.2-7.17-22.5-14.2-33.8-21.1-6.31-3.85-12.5-7.85-18.6-12-4.44-2.94-4.44-2.94-9.58-3.68z" fill="#FDFDFE"/>
<path transform="translate(1521 697)" d="m0 0c3.06 1.14 3.31 1.7 4.94 4.38 3.05 4.6 6.52 5.43 11.8 6.62 4.84 0.734 9.69 1.19 14.6 1.62 1.34 0.129 2.69 0.26 4.03 0.391 5.6 0.537 11.2 1.03 16.8 1.18 1.11 0.0346 1.11 0.0346 2.25 0.0698 1.86 0.0401 3.73 0.0379 5.6 0.0317 0.904 0.231 1.81 0.461 2.74 0.699 2.39 4.06 3.76 8.16 5.01 12.7 0.347 1.26 0.694 2.51 1.05 3.81 0.175 0.648 0.35 1.3 0.531 1.96 0.534 1.97 1.08 3.94 1.63 5.91 1.61 5.88 3.01 11.6 3.79 17.6l4 1v85l-2 1c-7.69-14.9-16.2-35.9-15-53h-2c-2.47-6.7-3.98-13.4-5.19-20.4-0.266-1.48-0.266-1.48-0.537-2.98-1.28-7.2-1.28-7.2-1.28-10.6-0.99-0.33-1.98-0.66-3-1v-2c-3.05-0.981-4.95-0.981-8 0-0.0825-1.26-0.165-2.52-0.25-3.81-0.387-3.5-0.387-3.5-2.81-6.06-0.639-0.371-1.28-0.742-1.94-1.12v-2c-0.619 0.186-1.24 0.371-1.88 0.562-2.12 0.438-2.12 0.438-4.12-0.562v2h-2v-2c-3.46-0.495-3.46-0.495-7-1v2h-6v-3c2.64-0.66 5.28-1.32 8-2-0.831 0.0116-1.66 0.0232-2.52 0.0352-1.09 0.00902-2.17 0.018-3.29 0.0273-1.08 0.0116-2.16 0.0232-3.27 0.0352-2.92-0.0977-2.92-0.0977-5.92-1.1-0.33 0.99-0.66 1.98-1 3-2.56 1.19-2.56 1.19-5 2-0.843-4.09-1.68-8.18-2.51-12.3-0.282-1.39-0.567-2.77-0.853-4.16-1.61-7.83-3.1-15.6-3.64-23.6 2-1 2-1 4.31-1z" fill="#305AA3"/>
<path transform="translate(1187 698)" d="m0 0c0.874 0.325 0.874 0.325 1.77 0.656 0.137 1.01 0.273 2.02 0.414 3.06 0.55 3.7 1.23 7.34 1.96 11 1.23 6.33 2.15 12.7 2.96 19.1 1.55 11.7 3.65 23.3 5.85 34.9 0.553 2.94 1.11 5.88 1.65 8.82 0.335 1.8 0.674 3.61 1.02 5.41 0.735 3.95 1.36 7.67 1.14 11.7 0.944 0.105 0.944 0.105 1.91 0.212 0.902 0.1 1.8 0.2 2.73 0.304 1.03 0.115 2.07 0.23 3.14 0.348 2.35 0.261 4.69 0.522 7.04 0.784 6.49 0.723 13 1.44 19.5 2.14 3.3 0.356 6.6 0.715 9.91 1.07 1.63 0.177 3.26 0.352 4.89 0.526 2.3 0.245 4.6 0.495 6.9 0.747 0.697 0.0728 1.39 0.146 2.11 0.221 4.8 0.533 4.8 0.533 5.91 1.65 0.459 5.47 0.144 10.7-1.4 15.9-0.604 2.1-1.14 4.2-1.67 6.32-0.46 1.86-0.46 1.86-0.93 3.76-0.796-0.121-1.59-0.242-2.41-0.367-3.65-0.552-7.31-1.09-11-1.63-1.88-0.286-1.88-0.286-3.79-0.578-6.35-0.93-12.4-1.65-18.9-1.36-2.96-0.0956-4.78-1.16-6.98-3.06v-2c-1.03 0.0522-1.03 0.0522-2.08 0.105-0.901 0.0271-1.8 0.0541-2.73 0.082-1.34 0.0522-1.34 0.0522-2.71 0.105-2.48-0.293-2.48-0.293-4.3-1.68-1.18-1.61-1.18-1.61-1.18-3.61h2c-0.541-6.13-4.71-9.94-9-14 1-1 1-1 3.56-1.06 0.804 0.0206 1.61 0.0412 2.44 0.0625-4.99-2.94-9.34-3.63-15-4 0.33-0.66 0.66-1.32 1-2-1.83-4.83-4.15-9.32-6.59-13.9-0.341-0.639-0.682-1.28-1.03-1.94-1.1-2.06-2.21-4.13-3.31-6.19-1.53-2.87-3.07-5.74-4.6-8.61-0.38-0.713-0.761-1.43-1.15-2.16-3.94-7.38-7.8-14.8-11.6-22.2-0.445-0.858-0.89-1.72-1.35-2.6-0.401-0.779-0.801-1.56-1.21-2.36-1.16-2.22-1.16-2.22-3.05-4.83-1.05-2.2-1.05-2.2-0.5-4.74 4.3-7.32 12-13.1 18.4-18.5 0.705-0.594 1.41-1.19 2.14-1.8 0.697-0.561 1.39-1.12 2.11-1.7 0.624-0.505 1.25-1.01 1.89-1.53 1.86-0.969 1.86-0.969 4.09-0.625z" fill="#4A80C5"/>
<path transform="translate(1512,701)" d="m0 0c1.9 7.01 3.46 14 4.75 21.2 0.14 0.755 0.279 1.51 0.423 2.29 0.322 1.83 0.58 3.68 0.827 5.53-1.64 1.64-3.75 1.47-5.96 1.8-18.2 2.67-36.3 7.13-54 12.3-9.04 2.58-18.3 4.5-27.4 6.51-1.29 0.284-2.57 0.567-3.9 0.859-1.15 0.251-2.31 0.502-3.49 0.76-3.28 0.744-3.28 0.744-6.54 1.95-2.7 0.841-2.7 0.841-4.7-0.159-1.2-3.67-1.89-7.48-2.69-11.2-0.238-1.05-0.476-2.1-0.721-3.18-0.22-1.02-0.44-2.03-0.666-3.08-0.202-0.931-0.404-1.86-0.612-2.82-0.334-2.83 0.0713-4.9 0.686-7.66 62.9-15.8 62.9-15.8 84-20.9 1.54-0.377 3.08-0.755 4.62-1.13 2.08-0.513 4.17-1.02 6.25-1.53 1.13-0.275 2.25-0.55 3.42-0.834 2.72-0.572 2.72-0.572 5.72-0.572z" fill="#305AA3"/>
<path transform="translate(1383,973)" d="m0 0 2 1v3h6c0.495 0.99 0.495 0.99 1 2-3.03 3.26-6.28 5.57-10 8-2.21 1.81-2.21 1.81-2.31 4.32 0.384 3.27 1.43 4.84 3.34 7.51 0.627 0.9 1.25 1.8 1.9 2.73 1.33 1.87 2.67 3.74 4.01 5.6 3.49 5.02 5.94 8.64 6.06 14.8-2.72 1.83-5.45 3.63-8.19 5.44-1.15 0.774-1.15 0.774-2.33 1.56-0.751 0.493-1.5 0.986-2.28 1.49-0.686 0.456-1.37 0.911-2.08 1.38-2.52 1.33-4.26 2.02-7.13 2.12-3.88-2.42-6.17-5.36-8.63-9.17-0.643-0.975-1.29-1.95-1.95-2.96-1.33-2.05-2.66-4.11-3.98-6.16-0.641-0.971-1.28-1.94-1.94-2.94-0.576-0.891-1.15-1.78-1.74-2.7-1.58-2.15-1.58-2.15-3.71-3.03-2.84-0.0482-3.98 0.935-6.23 2.64-0.781 0.581-1.56 1.16-2.37 1.76-0.807 0.619-1.61 1.24-2.45 1.88-1.6 1.21-3.21 2.41-4.81 3.61-0.708 0.541-1.42 1.08-2.14 1.64-1.95 1.37-3.88 2.43-6.04 3.44-5.11-3.69-5.61-9.12-6.81-14.9-0.219-1.03-0.439-2.06-0.665-3.12-1.51-7.59-2.01-14.3-0.523-21.9 6.62-3.12 6.62-3.12 10-2 0.407 0.508 0.815 1.02 1.23 1.54 4.21 3.48 12.5 1.91 17.8 1.46 5.06-0.703 10-1.8 15-3 0.33-0.99 0.66-1.98 1-3 0.743 0.0412 1.48 0.0825 2.25 0.125 3.56-0.162 5.62-1.45 8.62-3.25 2.81-1.16 5.11-1.07 8.12-0.875z" fill="#4980C5"/>
<path transform="translate(1335,748)" d="m0 0c6.12 6.99 6.46 14.7 6.31 23.6-0.0126 1.59-0.0126 1.59-0.0254 3.21-0.108 7.13-0.714 14-1.84 21-0.657 4.76-0.588 9.44-0.445 14.2-7.03 0.188-13.7-0.323-20.7-1.38-1.35-0.189-1.35-0.189-2.72-0.383-5-0.733-9.82-1.57-14.6-3.24-2.12-4.25-1.89-9.58-2.36-14.3-0.201-2.01-0.413-4.02-0.625-6.04-2.31-23-2.31-23 0.319-26.5 9.47-6.97 25.2-9.1 36.7-10.2z" fill="#305AA3"/>
<path transform="translate(1502,525)" d="m0 0c5.28 0.569 9.31 2.36 14 4.69 4.35 2.13 8.66 4.23 13.2 5.96 0.967 0.377 0.967 0.377 1.95 0.761 1.76 0.673 3.53 1.32 5.3 1.97 2.56 1.62 2.56 1.62 3.56 4.18 0.00527 4.64-0.904 8.87-1.93 13.4-1.31 5.83-2.19 11.1-2.06 17.1-0.26 1.9-0.569 3.8-0.938 5.69-0.174 0.911-0.348 1.82-0.527 2.76-0.315 1.5-0.649 3-1.03 4.48-0.824 3.37-1.33 6.79-1.88 10.2-0.129 0.8-0.259 1.6-0.392 2.42-0.273 1.7-0.546 3.4-0.817 5.09-0.274 1.71-0.551 3.41-0.832 5.12-1.82 11.1-3.13 22-3.58 33.2-1.93-0.788-1.93-0.788-4-2-0.903-2.73-1.5-5.19-2-8-0.156-0.842-0.312-1.68-0.473-2.55-0.548-3.04-1.07-6.09-1.59-9.14-2.09-12-4.43-23.9-6.84-35.8-2.86-14.1-5.71-28.3-8.22-42.5-0.212-1.17-0.424-2.33-0.643-3.54-0.182-1.06-0.365-2.12-0.553-3.21-0.157-0.902-0.315-1.8-0.477-2.73-0.218-2.71 0.141-4.89 0.797-7.52z" fill="#4980C5"/>
<path transform="translate(1345,753)" d="m0 0c6.46 0 10.3 4.07 15 8 1.01 0.742 2.02 1.49 3.06 2.25 7.98 6.76 14.4 17.3 15.9 27.8 0.14 3.15 0.14 6.29 0.125 9.44 0.0058 1.25 0.0058 1.25 0.0117 2.53-0.00705 4.46-0.238 8.65-1.14 13-0.99-0.33-1.98-0.66-3-1-2.39-0.318-4.79-0.605-7.19-0.875-8.35-0.979-16.6-2.48-24.8-4.12-1.08-3.25-0.927-4.69-0.441-8.02 0.139-1.01 0.278-2.02 0.421-3.06 0.227-1.63 0.227-1.63 0.458-3.29 1.1-8.44 1.85-16.7 1.81-25.2-0.0033-0.845-0.00661-1.69-0.01-2.56-0.056-3.67-0.247-7.21-0.818-10.8-0.139-0.982-0.278-1.96-0.422-2.98 0.33-0.33 0.66-0.66 1-1z" fill="#305AA3"/>
<path transform="translate(1578,569)" d="m0 0h2c1.14 1.43 1.14 1.43 2.39 3.44 0.463 0.731 0.926 1.46 1.4 2.21 0.481 0.775 0.962 1.55 1.46 2.35 5.78 10.8 5.78 10.8 14.8 18v13c-1.98 0.66-3.96 1.32-6 2-2.22 1.66-4.25 3.29-6.31 5.12-0.57 0.494-1.14 0.989-1.73 1.5-3.19 2.77-6.33 5.61-9.46 8.44-4.58 4.11-9.44 7.82-14.3 11.5-3.51 2.67-6.94 5.43-10.4 8.23-1.8 1.18-1.8 1.18-4.8 1.18-1-3-1-3 0.23-5.81 0.646-1.21 1.3-2.42 1.96-3.63 4.03-7.71 7.53-15.6 10.9-23.6 0.261-0.613 0.522-1.23 0.79-1.86 5.39-12.7 10.6-25.4 15.1-38.4 0.98-2.63 0.98-2.63 1.98-3.63z" fill="#4A81C5"/>
<path transform="translate(1123,774)" d="m0 0c3.66 1.22 4.36 2.47 6.69 5.5 4.84 6.08 10.1 11.7 15.5 17.3 3.33 3.49 6.62 7 9.84 10.6 0.579 0.644 1.16 1.29 1.75 1.95 1.25 1.65 1.25 1.65 1.25 3.65 0.603 0.264 1.21 0.529 1.83 0.801 2.28 1.26 3.34 2.35 4.92 4.39 2.84 3.49 6 6.25 9.52 9.04 2.04 2.09 2.81 4.02 3.73 6.77-6.19-0.983-12-2.23-17.9-4.35-2.08-0.64-3.95-0.906-6.11-1.09-2.98-0.293-5.24-0.997-7.94-2.28-3.74-1.71-7.51-3.29-11.3-4.79-1.09-0.429-2.18-0.859-3.3-1.3-2.26-0.888-4.53-1.77-6.8-2.66-1.08-0.427-2.16-0.853-3.28-1.29-1.47-0.575-1.47-0.575-2.97-1.16-2.38-1.08-2.38-1.08-4.38-3.08 0.223-8.45 2.58-17 4.5-25.2 0.213-0.921 0.427-1.84 0.647-2.79 0.209-0.867 0.419-1.73 0.635-2.63 0.186-0.775 0.373-1.55 0.564-2.35 0.654-2.05 0.654-2.05 2.65-5.05z" fill="#3A73C0"/>
<path transform="translate(1402,729)" d="m0 0c2.03 4.54 3.07 9.17 4.12 14 0.182 0.794 0.364 1.59 0.551 2.41 0.257 1.16 0.257 1.16 0.52 2.34 0.155 0.696 0.31 1.39 0.469 2.11 0.377 2.41 0.39 4.71 0.335 7.14-1.13 0.166-1.13 0.166-2.28 0.335-3.43 0.508-6.86 1.02-10.3 1.54-1.18 0.174-2.36 0.348-3.58 0.527-5.76 0.871-11.3 1.79-16.9 3.6-0.33 1.32-0.66 2.64-1 4-0.461-0.424-0.923-0.848-1.4-1.29-7.75-6.97-16.1-14-26.4-16.7-3.25-1-3.25-1-5.25-4 4.82-3.5 10.2-4.51 15.9-5.88 1.05-0.26 2.1-0.519 3.19-0.787 3.35-0.826 6.7-1.64 10.1-2.46 3.36-0.824 6.72-1.65 10.1-2.48 2.09-0.513 4.18-1.02 6.27-1.53 0.945-0.23 1.89-0.461 2.86-0.698 1.25-0.303 1.25-0.303 2.52-0.612 6.41-1.66 6.41-1.66 10.1-1.56z" fill="#305AA3"/>
<path transform="translate(1340,746)" d="m0 0c14.4 3.18 26.8 11.1 35.2 23.2 9.06 14.3 10.5 30.3 7.78 46.8-0.492 1.94-0.984 3.88-1.48 5.82-1.06 4.47-1.68 9.02-2.37 13.6-0.742 4.66-1.53 9.18-3.14 13.6-0.99 0.33-1.98 0.66-3 1-0.381-2.33-0.713-4.66-1-7 0.33-0.33 0.66-0.66 1-1 2.9-13.9 5.47-28.7 5.5-42.9 0.00588-0.706 0.0118-1.41 0.0178-2.14-0.273-11.2-6.04-22.7-13.5-30.9-8.85-8.58-8.85-8.58-20-12 0.16 0.962 0.32 1.92 0.484 2.91 2.35 16.6-0.173 33.6-2.48 50.1-1.94 0.562-1.94 0.562-4 1-1-1-1-1-1.19-4.12 0.034-3.87 0.582-7.55 1.19-11.4 0.959-6.92 1.29-13.8 1.38-20.8 0.0258-0.993 0.0516-1.99 0.0781-3.01 0.0193-7.27-1.57-13.1-4.45-19.7 0.99-0.33 1.98-0.66 3-1 0.33-0.66 0.66-1.32 1-2z" fill="#F8FBFD"/>
<path transform="translate(1135,395)" d="m0 0h235c-1.31 2.63-2.26 2.97-5 4-3.06 0.247-3.06 0.247-6.7 0.243-0.999 0.00285-0.999 0.00285-2.02 0.00575-2.21 0.00371-4.41-0.00702-6.62-0.0182-1.55-0.00119-3.11-0.00164-4.66-0.00139-3.27-0.00157-6.54-0.00985-9.81-0.0233-4.12-0.0167-8.24-0.0208-12.4-0.0201-3.22-2.77e-4 -6.44-0.00585-9.66-0.013-1.51-0.00311-3.03-0.00514-4.54-0.00589-8.77-0.00918-17.5-0.235-26.3-0.671-14-0.672-28-0.625-42-0.597-3.72 0.00637-7.44 0.00685-11.2 0.00803-7.01 0.00307-14 0.0112-21 0.0213-8 0.0113-16 0.0167-24 0.0217-16.4 0.0104-32.8 0.0279-49.2 0.0503v-3z" fill="#7898C1"/>
<path transform="translate(1511,578)" d="m0 0c2 2 2 2 4 5 2.53 1.71 3.91 2 7 2 3.04 0 4.45 0.433 7 2-0.33 0.66-0.66 1.32-1 2-1.32-0.33-2.64-0.66-4-1 2.64 0.99 5.28 1.98 8 3-0.322 2.25-0.643 4.5-0.965 6.76-0.275 1.93-0.55 3.86-0.823 5.78-0.588 4.14-1.18 8.28-1.82 12.4-1.33 8.67-1.96 17.3-2.39 26.1-1.88-0.5-1.88-0.5-4-2-0.911-2.73-1.5-5.18-2-8-0.177-0.949-0.355-1.9-0.538-2.87-0.612-3.35-1.2-6.71-1.77-10.1-1.9-10.9-3.97-21.7-6.25-32.5-0.203-0.982-0.407-1.96-0.616-2.97-0.274-1.3-0.274-1.3-0.554-2.62-0.0878-0.648-0.176-1.3-0.266-1.96 0.33-0.33 0.66-0.66 1-1z" fill="#3A73C0"/>
<path transform="translate(1486 300)" d="m0 0c1.07 0.00843 1.07 0.00843 2.16 0.017 1.13-0.00285 1.13-0.00285 2.28-0.00575 2.51-0.00373 5.02 0.00706 7.53 0.0182 1.77 0.00119 3.54 0.00164 5.32 0.00139 3.74 0.00157 7.49 0.00988 11.2 0.0233 4.68 0.0166 9.37 0.0207 14.1 0.0202 23.8 7.77e-4 47.5 0.377 71.3 1.19v4c-15.1 0.0235-30.2 0.041-45.3 0.0518-7.02 0.00513-14 0.0121-21.1 0.0236-6.78 0.0111-13.6 0.0169-20.3 0.0194-2.58 0.00184-5.15 0.00542-7.73 0.0109-3.63 0.00735-7.26 0.00949-10.9 0.0078-1.12 4.06e-5 -2.25 8.12e-5 -3.4 1.23e-4 -7.43-0.0286-14.7-0.391-22.1-1.19-3.72 0.0925-5.89 1.34-9.12 3.08-0.66-0.33-1.32-0.66-2-1 0.66-0.66 1.32-1.32 2-2h3c0.33-0.66 0.66-1.32 1-2 1-1 1-1 3.07-1.1 1.24 0.0174 1.24 0.0174 2.5 0.0352 0.826 0.00902 1.65 0.018 2.5 0.0273 0.638 0.0116 1.28 0.0232 1.93 0.0352v2c4.8-0.758 7.19-3.23 12.1-3.26z" fill="#436AAC"/>
<path transform="translate(1463 203)" d="m0 0c1.21-0.00137 2.41-0.00275 3.66-0.00417 1.34 0.00354 2.68 0.00717 4.02 0.0109 1.41 2.82e-4 2.82 1.24e-4 4.23-4.43e-4 3.83-2.87e-4 7.66 0.0056 11.5 0.0126 4 0.00624 8 0.00684 12 0.00803 7.58 0.00311 15.2 0.0113 22.7 0.0213 8.62 0.0112 17.2 0.0167 25.9 0.0217 17.7 0.0105 35.5 0.0281 53.2 0.0503v4c-30.5 1.12-61 1.12-91.5 1.07-6.51-0.0104-13-0.0148-19.5-0.0198-12.7-0.0106-25.3-0.0273-38-0.0488 3.32-4.9 6.06-5.13 11.8-5.12z" fill="#406BB0"/>
<path transform="translate(1462,95)" d="m0 0c0.895 0.163 1.79 0.326 2.71 0.494 5.61 0.794 11.2 0.629 16.9 0.604 1.26-0.00146 2.51-0.00292 3.81-0.00443 2.72-0.0038 5.44-0.0094 8.16-0.0181 4.3-0.0136 8.6-0.0194 12.9-0.0241 9.12-0.0111 18.2-0.0306 27.3-0.051 9.86-0.022 19.7-0.0426 29.6-0.0534 4.28-0.00499 8.55-0.0149 12.8-0.0284 3.27-0.00918 6.55-0.012 9.82-0.0158 1.19-0.00517 2.38-0.0103 3.6-0.0157 1.08-7.05e-5 2.16-1.41e-4 3.27-2.14e-4 0.94-0.00222 1.88-0.00444 2.85-0.00673 2.24 0.12 2.24 0.12 4.24 1.12v4c-17.8 0.0467-35.6 0.082-53.4 0.104-8.27 0.0103-16.5 0.0244-24.8 0.0473-7.21 0.0199-14.4 0.0328-21.6 0.0373-3.82 0.00261-7.63 0.00876-11.5 0.0233-3.59 0.0136-7.18 0.0178-10.8 0.0148-1.95 8.15e-4 -3.9 0.0116-5.85 0.0226-1.74-0.00412-1.74-0.00412-3.51-0.00833-1.51 0.00277-1.51 0.00277-3.05 0.00559-2.51-0.246-2.51-0.246-5.51-2.25 0.66-1.32 1.32-2.64 2-4z" fill="#4B75B6"/>
<path transform="translate(1382,816)" d="m0 0h2c0.165 1.2 0.33 2.39 0.5 3.62 1.16 4.64 3.44 6.52 7.32 9.12 2.99 1.72 5.95 3.04 9.18 4.25v2c0.722 0.124 1.44 0.247 2.19 0.375 2.77 0.615 5.21 1.51 7.81 2.62v2c0.928 0.103 1.86 0.206 2.81 0.312 3.19 0.688 3.19 0.688 5.12 2 1.06 1.69 1.06 1.69 0.629 3.79-0.28 0.938-0.28 0.938-0.566 1.89-1.46 0.229-2.91 0.432-4.38 0.625-0.812 0.116-1.62 0.232-2.46 0.352-3.66 0.0271-6.87-0.623-10.4-1.39-2.75-0.588-5.5-1.1-8.26-1.58-0.911-0.165-1.82-0.33-2.76-0.5-1.88-0.339-3.76-0.673-5.64-1-0.899-0.165-1.8-0.33-2.72-0.5-0.811-0.144-1.62-0.289-2.46-0.438-0.621-0.186-1.24-0.371-1.88-0.562-1.35-2.71-0.783-4.19-0.258-7.16 0.269-1.53 0.269-1.53 0.543-3.1 0.195-1.07 0.389-2.14 0.59-3.25 0.187-1.07 0.374-2.14 0.566-3.25 1.42-7.97 1.42-7.97 2.56-10.3z" fill="#4C72B3"/>
<path transform="translate(1187 698)" d="m0 0c0.874 0.325 0.874 0.325 1.77 0.656 0.86 5.65 1.45 11.3 2 17h-11c2.97 0.33 5.94 0.66 9 1v1c-0.922 0.0561-0.922 0.0561-1.86 0.113-1.21 0.0986-1.21 0.0986-2.45 0.199-0.801 0.058-1.6 0.116-2.43 0.176-2.73 0.618-3.57 1.31-5.26 3.51-1.2 2.26-1.2 2.26-2.19 4.69-0.344 0.808-0.688 1.62-1.04 2.45-0.254 0.615-0.508 1.23-0.77 1.86h-3c-0.33 3.3-0.66 6.6-1 10h-2c-1.56-2.55-3.1-5.11-4.62-7.69-0.446-0.721-0.892-1.44-1.35-2.19-3.15-5.39-3.15-5.39-2.55-8.87 4.82-7.09 12-12.8 18.5-18.3 0.705-0.594 1.41-1.19 2.14-1.8 0.697-0.561 1.39-1.12 2.11-1.7 0.624-0.505 1.25-1.01 1.89-1.53 1.86-0.969 1.86-0.969 4.09-0.625z" fill="#3B73BF"/>
<path transform="translate(1253 420)" d="m0 0c0.998-0.00426 2-0.00853 3.03-0.0129 1.1 4.53e-4 2.2 9.06e-4 3.33 0.00137 1.15-0.00336 2.31-0.00672 3.5-0.0102 3.83-0.00953 7.67-0.0115 11.5-0.0125 1.98-0.0024 3.97-0.0048 5.95-0.00746 6.24-0.00815 12.5-0.0106 18.7-0.00987 6.44 6.01e-4 12.9-0.00995 19.3-0.0257 5.53-0.0131 11.1-0.0184 16.6-0.0178 3.3 2.55e-4 6.61-0.00352 9.91-0.0132 3.68-0.00977 7.37-0.00693 11.1-8.95e-4 1.1-0.00562 2.19-0.0112 3.32-0.017 1 0.00419 2.01 0.00839 3.04 0.0127 1.31-8.17e-4 1.31-8.17e-4 2.64-0.00165 2.53 0.268 4.16 0.977 6.35 2.25-3.5 1.58-6.23 2.25-10.1 2.25-0.997 0.00419-1.99 0.00839-3.02 0.0127-1.08-0.00562-2.16-0.0112-3.28-0.017-1.15 0.0019-2.3 0.0038-3.48 0.00575-3.79 0.0037-7.59-0.00699-11.4-0.0182-2.63-0.00119-5.27-0.00164-7.9-0.00139-5.52-9.35e-4 -11-0.00961-16.6-0.0233-6.38-0.0157-12.8-0.021-19.1-0.0203-6.14 6.1e-4 -12.3-0.0046-18.4-0.0128-2.61-0.00319-5.23-0.00515-7.84-0.00589-3.64-0.00216-7.29-0.0109-10.9-0.0216-1.09 4.53e-4 -2.18 9.06e-4 -3.3 0.00137-0.988-0.00426-1.98-0.00853-3-0.0129-0.862-0.00168-1.72-0.00335-2.61-0.00508-2.07-0.129-2.07-0.129-4.07-1.13v-2c2.44-1.22 4-1.13 6.73-1.13z" fill="#6685B6"/>
<path transform="translate(1241 96.9)" d="m0 0c1.03-0.00137 2.06-0.00275 3.12-0.00417 1.7 0.00539 1.7 0.00539 3.42 0.0109 1.79-2.19e-4 1.79-2.19e-4 3.61-4.43e-4 3.26 5.78e-4 6.53 0.0056 9.79 0.0126 3.41 0.00625 6.82 0.00684 10.2 0.00803 6.46 0.00311 12.9 0.0113 19.4 0.0213 7.35 0.0112 14.7 0.0167 22.1 0.0217 15.1 0.0105 30.3 0.028 45.4 0.0503v3c1.32 0.33 2.64 0.66 4 1-14.2 0.0235-28.3 0.041-42.5 0.0518-6.58 0.00519-13.2 0.0122-19.7 0.0236-6.36 0.011-12.7 0.0169-19.1 0.0194-2.41 0.00183-4.83 0.00541-7.24 0.0109-13.5 0.0293-27-0.144-40.5-1.11v-2c2.97-0.99 4.89-1.12 7.99-1.12z" fill="#668CBF"/>
<path transform="translate(1424,151)" d="m0 0h9c0.33 0.66 0.66 1.32 1 2 2.53 0.656 2.53 0.656 5 1v-2h161v2c-17 1.34-34 1.16-51 1.17-2.55 7.17e-4 -5.1 0.00286-7.65 0.0055-8.91 0.0092-17.8 0.0133-26.7 0.0125-8.3-6.04e-4 -16.6 0.01-24.9 0.0257-7.15 0.0131-14.3 0.0184-21.4 0.0178-4.26-2.55e-4 -8.52 0.0026-12.8 0.0132-3.99 0.00965-7.98 0.00978-12 0.00248-1.46-0.00105-2.93 0.00133-4.39 0.00736-1.99 0.00768-3.99 0.00189-5.98-0.00463-1.12 5.45e-4 -2.23 0.00109-3.38 0.00165-2.74-0.249-2.74-0.249-5.74-2.25v-2z" fill="#B3B8BB"/>
<path transform="translate(152,95)" d="m0 0h68v2c1.2-0.0303 2.41-0.0606 3.65-0.0918 28.5-0.706 56.9-1.05 85.4-0.908v2h5v1h-168c0.33-0.66 0.66-1.32 1-2h5v-2z" fill="#C4C7C8"/>
<path transform="translate(1514 326)" d="m0 0c0.927-1.46e-4 1.85-2.92e-4 2.81-4.43e-4 3.06 6.95e-4 6.11 0.00847 9.17 0.0163 2.12 0.00187 4.25 0.00329 6.37 0.00429 5.58 0.00381 11.2 0.0136 16.7 0.0247 5.7 0.0102 11.4 0.0148 17.1 0.0198 11.2 0.0107 22.4 0.0278 33.5 0.0488v4c-10.2 0.0231-20.3 0.0409-30.5 0.0518-4.71 0.00523-9.43 0.0123-14.1 0.0236-4.55 0.0108-9.09 0.0168-13.6 0.0194-1.74 0.00185-3.48 0.00547-5.21 0.0109-2.43 0.00721-4.85 0.00826-7.28 0.0078-1.09 0.00539-1.09 0.00539-2.2 0.0109-4.96-0.0104-4.96-0.0104-6.07-1.12-1.56-0.157-3.13-0.251-4.69-0.316-0.944-0.0419-1.89-0.0838-2.86-0.127-0.993-0.0393-1.99-0.0786-3.01-0.119-0.997-0.0432-1.99-0.0864-3.02-0.131-2.47-0.106-4.94-0.208-7.42-0.307v-1c4.77-1.22 9.41-1.13 14.3-1.11z" fill="#325CA4"/>
<path transform="translate(1135,395)" d="m0 0h130c-0.33 0.66-0.66 1.32-1 2-6.26 1.37-12.6 1.13-19 1.11-1.79 2.19e-4 -1.79 2.19e-4 -3.61 4.43e-4 -3.25-5.75e-4 -6.49-0.00557-9.74-0.0126-3.4-0.00627-6.8-0.00684-10.2-0.00803-6.43-0.0031-12.9-0.0113-19.3-0.0213-7.33-0.0112-14.7-0.0167-22-0.0217-15.1-0.0104-30.1-0.028-45.2-0.0503v-3z" fill="#C2C5C6"/>
<path transform="translate(1340,746)" d="m0 0c4.75 1.88 4.75 1.88 7 3v2c0.99 0.33 1.98 0.66 3 1v1c-1.65 0.33-3.3 0.66-5 1 0.16 0.962 0.32 1.92 0.484 2.91 2.35 16.6-0.173 33.6-2.48 50.1-1.94 0.562-1.94 0.562-4 1-1-1-1-1-1.19-4.12 0.034-3.87 0.582-7.55 1.19-11.4 0.959-6.92 1.29-13.8 1.38-20.8 0.0258-0.993 0.0516-1.99 0.0781-3.01 0.0193-7.27-1.57-13.1-4.45-19.7 0.99-0.33 1.98-0.66 3-1 0.33-0.66 0.66-1.32 1-2z" fill="#F0F3F5"/>
<path transform="translate(1217 32.9)" d="m0 0c3.44-0.00162 6.87-0.00519 10.3-0.00919 5.48-0.00585 11-0.00608 16.4-0.00175 2.06 1e-3 4.11 4.01e-4 6.17-0.00184 2.83-0.00254 5.67 0.00123 8.5 0.00676 0.84-0.00203 1.68-0.00405 2.55-0.00614 5.75 0.0212 5.75 0.0212 7.98 1.14-0.33 0.99-0.66 1.98-1 3-1.07-0.165-2.14-0.33-3.25-0.5-9.6-1.4-9.6-1.4-18.8 0.5-1.69 0.0953-3.37 0.13-5.06 0.125-1.35 0.00387-1.35 0.00387-2.72 0.00781-2.21-0.133-2.21-0.133-3.21-1.13-1.84-0.083-3.69-0.0948-5.53-0.0801-1.82 0.00876-1.82 0.00876-3.67 0.0177-0.661 0.00516-1.32 0.0103-2 0.0156-3.64 0.0271-7.27 0.035-10.9 0.0428-0.787 0.00187-1.57 0.00373-2.38 0.00565-9.74 0.0144-19.5-0.102-29.2-0.22-0.928-0.0111-1.86-0.0222-2.81-0.0336-5.69-0.0682-11.4-0.139-17.1-0.211-4.92-0.0618-9.83-0.121-14.7-0.181-9.55-0.116-19.1-0.235-28.7-0.355v-1c33-1 66-1.11 99.1-1.12z" fill="#BEC1C2"/>
<path transform="translate(1155,812)" d="m0 0c5.54 1.08 7.73 3.67 11.1 7.84 2.46 2.83 5.24 5.1 8.17 7.42 2.02 2.07 2.79 4.02 3.7 6.74-6.18-0.982-12-2.22-17.9-4.35-2.19-0.665-4.17-0.91-6.45-1.09-4.04-0.616-5.23-1.39-7.69-4.56 1.19-3.44 1.19-3.44 3-7 2.69-0.938 2.69-0.938 5-1 0.33-1.32 0.66-2.64 1-4z" fill="#4980C5"/>
<path transform="translate(1600,385)" d="m0 0v5c-9.74 0.0694-19.5 0.123-29.2 0.155-4.52 0.0157-9.05 0.037-13.6 0.0709-4.36 0.0325-8.73 0.0505-13.1 0.0583-1.67 0.00556-3.33 0.0164-5 0.0326-2.33 0.0217-4.66 0.0248-6.99 0.0234-1.04 0.0162-1.04 0.0162-2.1 0.0327-1.92-0.0125-1.92-0.0125-5.01-0.373-0.66-0.99-1.32-1.98-2-3 3.81-1.91 8.43-1.41 12.6-1.56 1.7-0.0637 1.7-0.0637 3.44-0.129 20.3-0.647 40.6-0.39 60.9-0.309z" fill="#577BB5"/>
<path transform="translate(1409,914)" d="m0 0c0.66 0.33 1.32 0.66 2 1 0.181 4.07-0.068 7.69-0.875 11.7-1.25 6.34-1.81 12.7-2.34 19.1-0.444 4.97-1.25 9.42-2.79 14.2-9.83-3.67-18.6-9.86-27-16 1.77-0.656 1.77-0.656 4-1 1.82 1.03 1.82 1.03 3.69 2.5 4.05 2.75 6.68 2.8 11.4 1.99 1.95-0.441 1.95-0.441 3.88-1.49 0.655-1.93 0.655-1.93 1.07-4.25 0.261-1.28 0.261-1.28 0.527-2.59 0.174-0.898 0.348-1.8 0.527-2.72 0.182-0.902 0.364-1.8 0.551-2.73 0.449-2.23 0.89-4.47 1.32-6.71h2v-3c-0.66-0.33-1.32-0.66-2-1h4c-0.66-1.32-1.32-2.64-2-4h2v-5z" fill="#C7CACB"/>
<path transform="translate(1539 203)" d="m0 0c1.76 0.00187 3.51 0.00329 5.27 0.00429 4.59 0.00379 9.19 0.0136 13.8 0.0247 4.7 0.0103 9.4 0.0148 14.1 0.0198 9.2 0.0107 18.4 0.0277 27.6 0.0488v4c-25.7 1-51.3 0.898-77 0v-1c-3.96-0.33-7.92-0.66-12-1v-1c9.42-1.21 18.8-1.13 28.3-1.1z" fill="#305AA3"/>
<path transform="translate(1600,1053)" d="m0 0v11h-33c6.16-6.16 15.4-8.33 23.7-10.4 5.75-1.46 5.75-1.46 9.28-0.578z" fill="#C4C7C8"/>
<path transform="translate(1512,702)" d="m0 0h5c2.63 9.72 4.8 19.5 6.75 29.4 0.223 1.09 0.445 2.18 0.675 3.31 1.26 6.52 1.88 12.7 1.58 19.3-1.93-0.74-1.93-0.74-4-2-0.758-1.87-0.758-1.87-1.12-4.16-0.221-1.27-0.221-1.27-0.446-2.57-0.142-0.914-0.283-1.83-0.429-2.77-0.328-1.91-0.659-3.83-0.992-5.74-0.165-0.965-0.329-1.93-0.499-2.92-0.751-4.18-1.68-8.32-2.63-12.5-1.46-6.43-2.79-12.9-3.88-19.4z" fill="#F5F8FA"/>
<path transform="translate(1405,728)" d="m0 0c3.15 2.54 3.68 4.88 4.46 8.79 0.361 1.74 0.361 1.74 0.73 3.52 0.368 1.86 0.368 1.86 0.742 3.75 0.52 2.54 1.04 5.08 1.56 7.62 0.253 1.25 0.505 2.49 0.766 3.77 0.645 3.11 1.33 6.2 2.05 9.29 0.192 0.826 0.384 1.65 0.582 2.5 0.353 1.5 0.711 3 1.08 4.5 0.761 3.28 1.12 4.98 0.0295 8.24-3.21-1.75-3.98-2.95-5.27-6.43-0.385-1.48-0.75-2.96-1.1-4.45-0.201-0.804-0.403-1.61-0.61-2.44-3.04-12.5-5.5-25.1-8.01-37.7 0.99-0.33 1.98-0.66 3-1z" fill="#F3F6F8"/>
<path transform="translate(0,150)" d="m0 0c2.48 0.495 2.48 0.495 5 1v2c1.02-0.325 2.03-0.65 3.08-0.985 3.61-1.03 6.9-1.26 10.7-1.26 1.3-0.00308 2.6-0.00615 3.93-0.00932 1.4 0.0069 2.8 0.0142 4.2 0.0218 1.45 0.00119 2.91 0.00164 4.36 0.00139 3.04 0.00156 6.07 0.0098 9.11 0.0233 3.88 0.017 7.75 0.0208 11.6 0.0201 3 2.73e-4 6 0.00577 8.99 0.013 1.43 0.00316 2.86 0.00515 4.29 0.00589 2 0.00219 4 0.0118 6.01 0.0216 1.14 0.00381 2.27 0.00762 3.44 0.0116 3.49 0.141 6.85 0.584 10.3 1.13v-2c2.31 0.33 4.62 0.66 7 1-4.63 3.09-7.77 3.14-13.2 3.11-1.27 2.19e-4 -1.27 2.19e-4 -2.57 4.43e-4 -2.81-6.98e-4 -5.63-0.00849-8.44-0.0163-1.95-0.00186-3.9-0.00329-5.84-0.00429-5.13-0.00382-10.3-0.0137-15.4-0.0247-5.23-0.0102-10.5-0.0148-15.7-0.0198-10.3-0.0107-20.6-0.0278-30.8-0.0488v-4z" fill="#BAC1C9"/>
<path transform="translate(1372,852)" d="m0 0h3v16c-0.99 0.33-1.98 0.66-3 1v2c-1.32 0.33-2.64 0.66-4 1 0.99 0.66 1.98 1.32 3 2v4h-3c-0.33 0.66-0.66 1.32-1 2-3.65-1.25-4.78-1.67-7-5-0.195-2.92-0.195-2.92-0.125-6.19 0.018-1.09 0.0361-2.17 0.0547-3.29 0.0232-0.831 0.0464-1.66 0.0703-2.52 1.81-1.06 1.81-1.06 4-2 0.99 0.33 1.98 0.66 3 1v2h-6c1.18 1.42 1.18 1.42 4.56 1.06 1.7-0.0309 1.7-0.0309 3.44-0.0625 0.133-0.771 0.266-1.54 0.402-2.34 0.177-1 0.353-2.01 0.535-3.04 0.261-1.5 0.261-1.5 0.527-3.02 0.535-2.6 0.535-2.6 1.54-4.6z" fill="#C7CACB"/>
<path transform="translate(1563,606)" d="m0 0h2c-0.328 4.81-1.55 8.51-3.5 12.9-2.11 4.83-3.2 8.82-3.5 14.1 1.98 0.33 3.96 0.66 6 1-4.21 4.49-8.83 8.64-14 12h-3c-1-3-1-3 0.336-6.05 0.672-1.28 1.35-2.55 2.04-3.82 5.11-9.8 9.37-19.9 13.6-30.1z" fill="#3B73C0"/>
<path transform="translate(1380,805)" d="m0 0c0.99 0.33 1.98 0.66 3 1 0.0553 1.5 0.0934 3 0.125 4.5 0.0232 0.835 0.0464 1.67 0.0703 2.53-0.202 3.07-0.87 5.85-1.66 8.81-1.1 4.45-1.69 9-2.39 13.5-0.742 4.66-1.53 9.18-3.14 13.6-1.48 0.495-1.48 0.495-3 1-0.381-2.33-0.713-4.66-1-7 0.495-0.495 0.495-0.495 1-1 0.418-2.3 0.781-4.61 1.12-6.92 0.215-1.43 0.431-2.86 0.646-4.3 0.335-2.26 0.669-4.52 1-6.79 0.321-2.18 0.649-4.36 0.978-6.54 0.0959-0.671 0.192-1.34 0.291-2.03 0.565-3.72 1.41-6.99 2.96-10.4z" fill="#F8FBFD"/>
<path transform="translate(0,201)" d="m0 0c6.85-0.0254 13.7-0.0429 20.6-0.0549 2.33-0.00502 4.66-0.0118 6.99-0.0205 3.35-0.0122 6.71-0.0178 10.1-0.0222 1.55-0.00774 1.55-0.00774 3.14-0.0156 5.21-4.01e-4 10.1 0.234 15.3 1.11 1.3 0.0928 1.3 0.0928 2.62 0.188 3.66 1.25 5.09 3.74 7.38 6.81-3 0-3 0-5.22-1.95-3.42-2.52-6.11-2.71-10.2-2.8-0.746-0.0282-1.49-0.0564-2.26-0.0854-8.12-0.257-16.2-0.263-24.4-0.29-0.682-0.00286-1.36-0.00572-2.07-0.00867-1.95-0.00575-3.9-0.00263-5.84 8.54e-4 -1.71 0.00169-1.71 0.00169-3.45 0.00342-2.51-0.163-2.51-0.163-3.58 1.13-1.52 0.0718-3.04 0.0839-4.56 0.0625-0.826-0.00902-1.65-0.018-2.5-0.0273-0.638-0.0116-1.28-0.0232-1.93-0.0352v-4z" fill="#C4C7C8"/>
<path transform="translate(277,30)" d="m0 0h10v2c0.813-0.0125 1.63-0.0251 2.46-0.038 7.81-0.12 15.6-0.238 23.4-0.353 4.01-0.0594 8.02-0.12 12-0.182 20.4-0.315 40.7-0.505 61.1-0.427v1c-18.5 0.749-37.1 1.2-55.6 1.35-2.51 0.0232-5.02 0.0466-7.53 0.0702-5.19 0.0478-10.4 0.0928-15.6 0.136-5.99 0.05-12 0.106-18 0.165-5.82 0.0574-11.6 0.109-17.5 0.159-2.46 0.0216-4.92 0.0447-7.38 0.0695-3.41 0.0337-6.81 0.061-10.2 0.0865-1.01 0.0114-2.03 0.0227-3.08 0.0345-0.921 0.00559-1.84 0.0112-2.79 0.017-1.2 0.0105-1.2 0.0105-2.43 0.0212-1.95-0.11-1.95-0.11-3.95-1.11v-2c11.6 0.33 23.1 0.66 35 1v-2z" fill="#C1C4C5"/>
<path transform="translate(1594,326)" d="m0 0h6v4h-78c-0.33-0.66-0.66-1.32-1-2 24.1-0.33 48.2-0.66 73-1v-1z" fill="#3F68AC"/>
<path transform="translate(1368,101)" d="m0 0c8.42 6.93 16.1 14.6 23.2 23 3.08 3.43 6.45 6.57 9.79 9.75 1.98 2.23 2.68 3.39 3.04 6.3-8.91-6.12-16.2-13.8-23.2-22-2.77-3.1-5.77-5.96-8.78-8.83-2.08-2.24-3.54-4.51-5.02-7.18 0.33-0.33 0.66-0.66 1-1z" fill="#4E74B3"/>
<path transform="translate(1411 848)" d="m0 0c0.896-0.0142 1.79-0.0284 2.71-0.043 2.35 0.23 2.35 0.23 4.35 2.23 0.172 2.85 0.232 5.59 0.188 8.44-6.45e-4 0.777-0.00129 1.55-0.00195 2.35-0.0257 3.31-0.132 6.05-1.19 9.21-0.0392 2-0.0444 4 0 6-0.99-0.33-1.98-0.66-3-1v-9h2c-0.474-1.09-0.949-2.19-1.44-3.31-0.964-2.22-1.79-4.38-2.56-6.69-2-1.21-2-1.21-4-2v-4c-0.99-0.33-1.98-0.66-3-1 1.67-1.67 3.66-1.17 5.94-1.19z" fill="#C7CACB"/>
<path transform="translate(1519,616)" d="m0 0c0.763 0.825 1.53 1.65 2.31 2.5 2.44 2.84 2.44 2.84 5.69 2.5-0.33 6.93-0.66 13.9-1 21-4-2-4-2-5.12-5.19-0.867-4.22-1.46-8.49-2.06-12.8-0.0962-0.675-0.192-1.35-0.292-2.05-0.218-1.67-0.375-3.34-0.521-5.02 0.33-0.33 0.66-0.66 1-1z" fill="#355EA6"/>
<path transform="translate(1231 395)" d="m0 0c0.968 0.00141 1.94 0.00283 2.93 0.00429 3.08 0.00557 6.15 0.0181 9.23 0.0309 2.09 0.00502 4.18 0.00958 6.28 0.0137 5.12 0.011 10.2 0.0282 15.3 0.0488-0.33 0.66-0.66 1.32-1 2-4.87 0.973-9.63 1.13-14.6 1.13-0.701 9.57e-4 -1.4 0.00191-2.12 0.0029-1.47 6.76e-4 -2.95-0.00114-4.42-0.00534-2.23-0.00534-4.46-4.4e-5 -6.69 0.00635-7.12 0.00299-14.1-0.132-21.2-1.14v-1c5.43-1.14 10.7-1.13 16.2-1.1z" fill="#B9BCBD"/>
<path transform="translate(1171 711)" d="m0 0c0.578 0.247 1.15 0.495 1.75 0.75-0.33 1.32-0.66 2.64-1 4-0.99-0.33-1.98-0.66-3-1-0.33 0.99-0.66 1.98-1 3h-2v12c-0.99 0.33-1.98 0.66-3 1-4.69-4.24-4.69-4.24-5-8 1.29-2 1.29-2 3.19-4 0.975-1.03 0.975-1.03 1.97-2.09 0.913-0.946 0.913-0.946 1.84-1.91 0.722-0.846 1.44-1.69 2.19-2.56 1.81-1.44 1.81-1.44 4.06-1.19z" fill="#4B74B6"/>
<path transform="translate(1585,203)" d="m0 0h15v4c-12.2 0.33-24.4 0.66-37 1 0.33-0.99 0.66-1.98 1-3 10.4-0.495 10.4-0.495 21-1v-1z" fill="#4C76B7"/>
<path transform="translate(1182,938)" d="m0 0c0.66 0.66 1.32 1.32 2 2-0.33 0.99-0.66 1.98-1 3h2v-5c0.99 0.33 1.98 0.66 3 1-1.32 7.26-2.64 14.5-4 22-0.99-0.99-1.98-1.98-3-3-0.66 0.66-1.32 1.32-2 2-0.987-3.11-0.968-5.16-0.223-8.33 0.184-0.799 0.367-1.6 0.557-2.42 0.199-0.825 0.398-1.65 0.604-2.5 0.195-0.84 0.391-1.68 0.592-2.55 0.482-2.07 0.975-4.14 1.47-6.2z" fill="#C7CACB"/>
<path transform="translate(1235,33)" d="m0 0c4.52-0.0247 9.04-0.0429 13.6-0.0549 1.54-0.00503 3.08-0.0119 4.62-0.0205 2.21-0.0121 4.42-0.0178 6.63-0.0222 0.69-0.00516 1.38-0.0103 2.09-0.0156 4.88-5.75e-4 4.88-5.75e-4 7.11 1.11-0.33 0.99-0.66 1.98-1 3-1.07-0.165-2.14-0.33-3.25-0.5-9.6-1.4-9.6-1.4-18.8 0.5-1.71 0.07-3.42 0.0844-5.12 0.0625-0.91-0.00902-1.82-0.018-2.76-0.0273-0.699-0.0116-1.4-0.0232-2.12-0.0352-0.33-1.32-0.66-2.64-1-4z" fill="#A1AEC0"/>
<path transform="translate(1229 813)" d="m0 0c0.784 0.247 1.57 0.495 2.38 0.75 0.33 0.66 0.66 1.32 1 2-0.33 0.99-0.66 1.98-1 3h2v2c0.82 0.049 1.64 0.098 2.48 0.148 1.08 0.0748 2.16 0.15 3.27 0.227 1.07 0.0696 2.13 0.139 3.23 0.211 2.86 0.393 4.52 1.07 7.02 2.41-3.54-0.0814-7.08-0.194-10.6-0.312-0.999-0.0226-2-0.0451-3.03-0.0684-5.57-0.203-9.61-0.601-14.3-3.62 1.45-4.24 2.54-7.23 7.62-6.75z" fill="#4C73B3"/>
<path transform="translate(5,94)" d="m0 0h25c0.33 0.66 0.66 1.32 1 2 2.02 1.13 2.02 1.13 4 2-3.48 0.0289-6.96 0.0468-10.4 0.0625-0.993 0.00838-1.99 0.0168-3.01 0.0254-0.944 0.00322-1.89 0.00645-2.86 0.00977-1.31 0.00786-1.31 0.00786-2.65 0.0159-2.04-0.114-2.04-0.114-3.04-1.11-2.19-0.0726-4.38-0.0837-6.56-0.0625-1.2 0.00902-2.4 0.018-3.63 0.0273-1.39 0.0174-1.39 0.0174-2.81 0.0352v-1h5v-2z" fill="#486EAD"/>
<path transform="translate(1200,98)" d="m0 0h29v2c1.32 0.33 2.64 0.66 4 1h-37c1.32-0.33 2.64-0.66 4-1v-2z" fill="#C7CACB"/>
<path transform="translate(30,201)" d="m0 0c3.02-0.0272 6.04-0.0469 9.06-0.0625 0.848-0.00838 1.7-0.0168 2.57-0.0254 4.9-0.0189 9.52 0.279 14.4 1.09 1.3 0.0928 1.3 0.0928 2.62 0.188 3.66 1.25 5.09 3.74 7.38 6.81-3 0-3 0-5.14-1.96-3.89-2.78-6.94-2.67-11.6-2.73-1.61-0.0558-3.22-0.113-4.82-0.172-0.765-0.0226-1.53-0.0451-2.32-0.0684-3.76-0.129-7.4-0.465-11.1-1.07-0.33-0.66-0.66-1.32-1-2z" fill="#BEC1C2"/>
<path transform="translate(267,96)" d="m0 0h42v2h5v1h-23v-2h-24v-1z" fill="#C8CBCC"/>
<path transform="translate(1581,1057)" d="m0 0v2c1.65 0.33 3.3 0.66 5 1-0.33 0.66-0.66 1.32-1 2 2.47 0.495 2.47 0.495 5 1v1h-23c2.72-2.72 4.17-3.73 7.56-5.19 0.785-0.344 1.57-0.688 2.38-1.04 2.06-0.77 2.06-0.77 4.06-0.77z" fill="#C5C8C9"/>
<path transform="translate(1475 326)" d="m0 0c4.78 0.0906 9.36 0.427 14.1 1.23v1c-6.18 2.06-6.18 2.06-9.39 1.83-4.19-0.225-7.16 0.0507-10.6 2.68-4.64 4.21-8.89 8.8-13 13.5 0-3 0-3 1.35-4.69 0.616-0.6 1.23-1.2 1.87-1.82 0.668-0.658 1.34-1.32 2.02-1.99 0.706-0.681 1.41-1.36 2.14-2.06 0.699-0.685 1.4-1.37 2.12-2.08 1.3-1.27 2.6-2.54 3.9-3.8 3.67-3.56 3.67-3.56 5.52-3.79z" fill="#4269AC"/>
<path transform="translate(1191,395)" d="m0 0h30v1h-6v2h-24v-3z" fill="#C8CBCC"/>
<path transform="translate(0,150)" d="m0 0c2.48 0.495 2.48 0.495 5 1v2c1.45-0.487 1.45-0.487 2.92-0.984 4.45-1.27 8.72-1.31 13.3-1.27 0.802-0.00773 1.6-0.0155 2.43-0.0234 3.94 0.0132 5.97 0.0417 9.32 2.27-11 0.831-21.9 1.12-33 1v-4z" fill="#A5B1C1"/>
<path transform="translate(1359,684)" d="m0 0h1c-0.0116 1.22-0.0232 2.45-0.0352 3.71-0.0755 11.8 0.289 23.5 1.04 35.3h-1v-7h-2c0.33-3.63 0.66-7.26 1-11h-2v-14h2v-7z" fill="#C7CACB"/>
<path transform="translate(1399,257)" d="m0 0c0.66 0.33 1.32 0.66 2 1-0.482 0.531-0.964 1.06-1.46 1.61-0.632 0.706-1.26 1.41-1.91 2.14-0.626 0.696-1.25 1.39-1.9 2.11-1.6 1.99-2.69 3.82-3.73 6.14-2.75 0.25-2.75 0.25-6 0-2.2-2.02-2.2-2.02-4-4 1.09-0.22 1.09-0.22 2.2-0.445 6.75-1.57 10.4-3.18 14.8-8.55z" fill="#3C64A9"/>
<path transform="translate(1302,908)" d="m0 0c2.92 0.627 5.45 1.42 8 3 0.33 0.99 0.66 1.98 1 3-1.32 0.33-2.64 0.66-4 1-0.33 2.64-0.66 5.28-1 8h-2c-1.26-5.07-2.27-9.73-2-15z" fill="#315CA5"/>
<path transform="translate(114,258)" d="m0 0c3.55 0.598 5.5 1.96 8.19 4.31 0.695 0.594 1.39 1.19 2.11 1.8 1.81 2.01 2.32 3.25 2.71 5.89-4.86-0.417-6.83-2.41-10-6-3-3.62-3-3.62-3-6z" fill="#315BA3"/>
<path transform="translate(42.1 766)" d="m0 0c1.88 0.75 1.88 0.75 2.88 1.75 0.0409 2.33 0.0424 4.67 0 7-1.81 0.688-1.81 0.688-4 1-2.06-1.45-2.87-2.7-3.88-5-0.125-2-0.125-2 1.06-3.81 1.81-1.19 1.81-1.19 3.94-0.938z" fill="#305AA3"/>
<path transform="translate(1240 96.9)" d="m0 0c1.2 0.00483 1.2 0.00483 2.43 0.00977 1.25 0.0126 1.25 0.0126 2.53 0.0254 0.845 0.00451 1.69 0.00902 2.56 0.0137 2.08 0.0118 4.17 0.0297 6.25 0.0488-0.33 0.99-0.66 1.98-1 3h-20v-2c2.77-0.922 4.38-1.12 7.23-1.1z" fill="#B4B9BC"/>
<path transform="translate(1372,842)" d="m0 0c1.48 2.96 1.06 5.74 1 9h-2v-2h-6l4-2c-2.31-0.66-4.62-1.32-7-2v-3c3.73-1.24 6.18-0.778 10 0z" fill="#C7CACB"/>
<path transform="translate(1268,811)" d="m0 0c2 2 2 2 2.01 4.21-0.107 0.86-0.214 1.72-0.324 2.61-0.108 0.891-0.217 1.78-0.328 2.7-0.364 2.52-0.781 5.01-1.36 7.49-2-1-2-1-3-2 0.038-2.15 0.155-4.29 0.312-6.44 0.0786-1.17 0.157-2.35 0.238-3.56 0.449-3 0.449-3 2.45-5z" fill="#F7FAFC"/>
<path transform="translate(1564,205)" d="m0 0c3.62-0.0579 7.25-0.0936 10.9-0.125 1.03-0.0168 2.07-0.0335 3.13-0.0508 0.986-0.00645 1.97-0.0129 2.99-0.0195 1.37-0.0157 1.37-0.0157 2.76-0.0317 2.25 0.227 2.25 0.227 4.25 2.23-12.4 0.495-12.4 0.495-25 1 0.33-0.99 0.66-1.98 1-3z" fill="#426BAE"/>
<path transform="translate(1462,95)" d="m0 0c1.77 0.283 3.54 0.577 5.31 0.875 0.986 0.162 1.97 0.325 2.99 0.492 2.7 0.633 2.7 0.633 5.7 2.63-2.1 0.39-4.21 0.761-6.31 1.12-1.17 0.209-2.34 0.418-3.55 0.633-3.14 0.242-3.14 0.242-6.14-1.76 0.66-1.32 1.32-2.64 2-4z" fill="#305AA3"/>
<path transform="translate(49,95)" d="m0 0c-0.33 1.65-0.66 3.3-1 5-1.56 0.75-1.56 0.75-4 1-2.5-1.13-4.67-2.52-7-4 0.33-0.66 0.66-1.32 1-2 3.92-0.813 7.18-1.38 11 0z" fill="#315AA3"/>
<path transform="translate(1582,1056)" d="m0 0c3.38 0.312 3.38 0.312 7 1 2 3 2 3 2 6h-10c1.32-0.66 2.64-1.32 4-2-1.32-0.66-2.64-1.32-4-2 0.33-0.99 0.66-1.98 1-3z" fill="#B8BBBC"/>
<path transform="translate(1375,978)" d="m0 0c-0.562 1.94-0.562 1.94-2 4-6.15 1.43-6.15 1.43-9 0-0.66 1.32-1.32 2.64-2 4h-3c1.22-3.65 2.79-4.37 6.09-6.15 3.23-1.44 6.41-1.85 9.91-1.85z" fill="#3B74C1"/>
<path transform="translate(40,784)" d="m0 0c3.69 0.692 3.69 0.692 5 2 0.0406 1.67 0.0427 3.33 0 5-2.38 0.625-2.38 0.625-5 1-0.66-0.66-1.32-1.32-2-2 0.556-4.56 0.556-4.56 2-6z" fill="#305AA3"/>
<path transform="translate(1430,638)" d="m0 0v2c0.99 0.33 1.98 0.66 3 1-0.583-0.0722-1.17-0.144-1.77-0.219-9.84-1.11-19.4-1.09-29.2 0.219 2.85-2.85 5.97-2.71 9.81-3.12 0.712-0.0864 1.42-0.173 2.16-0.262 5.62-0.655 10.5-0.876 16 0.387z" fill="#C9CCCD"/>
<path transform="translate(1482,326)" d="m0 0h23v1h-5v2h-11v-2h-7v-1z" fill="#B8BBBC"/>
<path transform="translate(78,223)" d="m0 0c4.16 2.08 6.62 4.69 9.51 8.22 1.35 1.61 2.82 3.11 4.3 4.59 2.19 2.19 2.19 2.19 3.19 4.19-4.48-1.41-6.83-3.59-10-7-0.887-0.825-1.77-1.65-2.69-2.5-2.28-2.47-3.31-4.32-4.31-7.5z" fill="#597BB4"/>
<path transform="translate(1235,33)" d="m0 0c9.41-0.185 9.41-0.185 14 1-1.77 2.25-2.58 2.95-5.48 3.29-1.34-0.0522-1.34-0.0522-2.71-0.105-1.35-0.0406-1.35-0.0406-2.73-0.082-0.687-0.0348-1.37-0.0696-2.08-0.105-0.33-1.32-0.66-2.64-1-4z" fill="#6790C3"/>
<path transform="translate(1589,301)" d="m0 0h11v4c-5.28-0.33-10.6-0.66-16-1v-1c1.65-0.33 3.3-0.66 5-1v-1z" fill="#587CB6"/>
<path transform="translate(1477,722)" d="m0 0c1.68 0.286 3.34 0.618 5 1v7c-4.88-0.875-4.88-0.875-6-2-0.125-2.5-0.125-2.5 0-5 0.33-0.33 0.66-0.66 1-1z" fill="#E7EBEE"/>
<path transform="translate(66,210)" d="m0 0c3.67 1.5 5.69 3.64 8.25 6.62 0.706 0.817 1.41 1.63 2.14 2.48 0.531 0.626 1.06 1.25 1.61 1.9-0.33 0.66-0.66 1.32-1 2-1.63-1.43-3.25-2.87-4.88-4.31-0.905-0.801-1.81-1.6-2.74-2.43-2.38-2.26-2.38-2.26-4.38-5.26 0.33-0.33 0.66-0.66 1-1z" fill="#5277B4"/>
<path transform="translate(1563,1046)" d="m0 0c0.33 0.66 0.66 1.32 1 2 2.02 1.13 2.02 1.13 4 2v1c-0.949-0.0206-1.9-0.0412-2.88-0.0625-3.03-0.163-3.03-0.163-5.12 1.06-0.99-0.33-1.98-0.66-3-1v-5c3-1 3-1 6 0z" fill="#467DC4"/>
<path transform="translate(1381,790)" d="m0 0c0.33 1.32 0.66 2.64 1 4h2v12h-2v5h-1v-21z" fill="#D6D9DA"/>
<path transform="translate(1123,774)" d="m0 0c3.41 1.14 4.12 2.04 6 5v2c-2.97-0.495-2.97-0.495-6-1-0.33 1.65-0.66 3.3-1 5h-1c-0.25-7.62-0.25-7.62 2-11z" fill="#315DA6"/>
<path transform="translate(0,201)" d="m0 0c5.15-0.0904 9.92 0.153 15 1v1c-5.13 2.1-9.56 2.22-15 2v-4z" fill="#6685B6"/>
<path transform="translate(242,31)" d="m0 0c11.2 0.33 22.4 0.66 34 1v1c-4.52 0.167-9.04 0.328-13.6 0.482-1.54 0.0534-3.08 0.109-4.62 0.166-2.21 0.0819-4.42 0.157-6.63 0.231-0.69 0.027-1.38 0.0541-2.09 0.0819-4.88 0.153-4.88 0.153-7.11-0.961v-2z" fill="#8D9DB7"/>
<path transform="translate(1551,637)" d="m0 0c0.454 0.474 0.908 0.949 1.38 1.44 1.56 1.65 1.56 1.65 3.62 2.56-5.62 5-5.62 5-9 5-0.33-0.99-0.66-1.98-1-3 2.33-4.67 2.33-4.67 5-6z" fill="#345EA5"/>
<path transform="translate(98,243)" d="m0 0c4.29 0.463 6.03 2.9 8.75 6.06 1.2 1.38 1.2 1.38 2.42 2.79 0.603 0.71 1.21 1.42 1.83 2.15-3.7 0-4.36-0.844-7.06-3.25-0.692-0.603-1.38-1.21-2.1-1.83-1.81-1.89-2.82-3.53-3.84-5.92z" fill="#5377B4"/>
<path transform="translate(1338,821)" d="m0 0c1.32 0.66 2.64 1.32 4 2v7c-1.65-0.33-3.3-0.66-5-1-0.0424-2.33-0.0409-4.67 0-7 0.33-0.33 0.66-0.66 1-1z" fill="#DBDEDF"/>
<path transform="translate(1366,749)" d="m0 0c1.68 0.286 3.34 0.618 5 1-0.33 1.65-0.66 3.3-1 5-1.88 0.625-1.88 0.625-4 1-0.66-0.66-1.32-1.32-2-2 0.536-3.54 0.536-3.54 2-5z" fill="#FAFDFF"/>
<path transform="translate(1581,1049)" d="m0 0c-0.186 0.598-0.371 1.2-0.562 1.81-0.658 2.35-0.658 2.35 0.562 5.19-7.75 1.12-7.75 1.12-10 0 0.33-0.99 0.66-1.98 1-3 1.65-0.33 3.3-0.66 5-1v-2c2-1 2-1 4-1z" fill="#4980C5"/>
<path transform="translate(1424,151)" d="m0 0h9c0.33 0.66 0.66 1.32 1 2 2.02 1.13 2.02 1.13 4 2-1.77 0.0541-3.54 0.0928-5.31 0.125-1.48 0.0348-1.48 0.0348-2.99 0.0703-2.7-0.195-2.7-0.195-5.7-2.2v-2z" fill="#577DB7"/>
<path transform="translate(1422 844)" d="m0 0c2.77 1.42 3.91 2.71 5.56 5.31-1.44 0.223-2.87 0.428-4.31 0.625-0.801 0.116-1.6 0.232-2.43 0.352-2.26 0.0234-2.26 0.0234-5.26-1.98 0.99-0.33 1.98-0.66 3-1 0.33-0.66 0.66-1.32 1-2-0.66-0.33-1.32-0.66-2-1 2-1 2-1 4.44-0.312z" fill="#305AA3"/>
<path transform="translate(41,802)" d="m0 0c2.19 0.312 2.19 0.312 4 1 0.562 1.94 0.562 1.94 1 4-1 1-1 1-3.44 1.25-0.846-0.0825-1.69-0.165-2.56-0.25-0.66-0.99-1.32-1.98-2-3 1.25-1.56 1.25-1.56 3-3z" fill="#305AA3"/>
<path transform="translate(1563,606)" d="m0 0h2c-0.972 8.26-0.972 8.26-3 12-2.07 1.14-2.07 1.14-4 2 1.54-4.72 3.08-9.42 5-14z" fill="#4078C2"/>
<path transform="translate(1460 649)" d="m0 0c1.23 0.153 1.23 0.153 2.48 0.309 0.94 0.126 0.94 0.126 1.9 0.254l-4 2c0.33 1.32 0.66 2.64 1 4-1.65-0.33-3.3-0.66-5-1-0.33-0.99-0.66-1.98-1-3-0.66-0.66-1.32-1.32-2-2 2.52-1.26 3.85-0.919 6.62-0.562z" fill="#E6E9EB"/>
<path transform="translate(61,203)" d="m0 0c1.91 1.88 3.39 3.84 5 6-3 0-3 0-5.31-1.94-3-2.3-4.97-2.72-8.69-3.06 3.34-2.1 5.29-2.45 9-1z" fill="#4C74B5"/>
<path transform="translate(277,30)" d="m0 0h10c0.33 0.99 0.66 1.98 1 3h-12c0.33-0.99 0.66-1.98 1-3z" fill="#C8CBCC"/>
<path transform="translate(1228,806)" d="m0 0c0.99 0.33 1.98 0.66 3 1-0.33 1.98-0.66 3.96-1 6-1.65-0.33-3.3-0.66-5-1 1.88-4.88 1.88-4.88 3-6z" fill="#FAFDFF"/>
<path transform="translate(1176,716)" d="m0 0c4.29 0.33 8.58 0.66 13 1v1c-0.568 0.0374-1.14 0.0748-1.72 0.113-5.36 0.457-9.44 1.52-14.3 3.89l3-6z" fill="#4078C2"/>
<path transform="translate(1344,838)" d="m0 0c2.64 0.33 5.28 0.66 8 1v2l2 1h-12c0.66-1.32 1.32-2.64 2-4z" fill="#C5C8C9"/>
<path transform="translate(60,818)" d="m0 0c0.66 0.33 1.32 0.66 2 1v7c-1.32-0.33-2.64-0.66-4-1-0.125-2.38-0.125-2.38 0-5 0.66-0.66 1.32-1.32 2-2z" fill="#305AA3"/>
<path transform="translate(1380,792)" d="m0 0h1c1.52 9.41 1.52 9.41-1 14h-1c-0.0272-1.58-0.0465-3.17-0.0625-4.75-0.0116-0.882-0.0232-1.76-0.0352-2.67 0.0894-2.36 0.429-4.32 1.1-6.58z" fill="#EEF1F3"/>
</svg>
