<?xml version="1.0" standalone="no"?>
<!DOCTYPE svg PUBLIC "-//W3C//DTD SVG 20010904//EN"
 "http://www.w3.org/TR/2001/REC-SVG-20010904/DTD/svg10.dtd">
<svg version="1.0" xmlns="http://www.w3.org/2000/svg"
 width="361.000000pt" height="325.000000pt" viewBox="0 0 361.000000 325.000000"
 preserveAspectRatio="xMidYMid meet">

<g transform="translate(0.000000,325.000000) scale(0.100000,-0.100000)"
fill="#000000" stroke="none">
<path d="M1605 3221 c-28 -16 -36 -35 -85 -189 l-54 -172 -35 -11 c-20 -6 -76
-30 -125 -52 l-89 -41 -162 83 c-136 70 -167 83 -191 77 -44 -11 -302 -271
-310 -312 -5 -27 8 -58 77 -191 l84 -160 -39 -82 c-21 -45 -44 -101 -51 -124
l-12 -42 -166 -52 c-92 -28 -172 -55 -178 -59 -30 -18 -39 -75 -39 -244 0
-180 9 -229 47 -248 10 -5 89 -31 175 -58 l157 -48 22 -60 c12 -34 35 -90 52
-126 l31 -65 -84 -160 c-70 -136 -82 -165 -76 -190 10 -43 284 -315 317 -315
13 -1 97 36 185 82 l161 82 89 -41 c49 -22 105 -46 124 -52 36 -11 36 -12 85
-169 27 -86 53 -165 58 -175 18 -38 67 -47 249 -47 244 0 228 -11 297 207 l55
173 36 11 c19 6 75 30 124 52 l89 41 161 -84 c137 -71 166 -82 191 -76 34 9
277 242 302 290 8 16 12 39 9 52 -4 13 -42 90 -85 172 l-78 147 25 50 c14 28
37 84 52 125 l28 75 168 53 c113 35 175 59 187 73 15 19 17 46 17 229 0 183
-2 210 -18 229 -11 14 -71 38 -186 74 l-169 52 -18 55 c-10 30 -33 86 -51 124
l-33 68 83 160 c70 134 83 165 78 192 -8 42 -266 301 -311 312 -26 6 -53 -5
-190 -75 l-160 -83 -90 40 c-49 21 -106 44 -126 51 -39 12 -29 -9 -109 249
-44 144 -40 142 -280 142 -163 0 -189 -2 -215 -19z m375 -321 c28 -87 57 -166
65 -174 8 -8 53 -26 100 -41 48 -15 124 -47 171 -71 47 -24 94 -44 106 -44 11
0 88 35 169 77 l149 78 77 -78 78 -77 -78 -149 c-42 -81 -77 -157 -77 -169 0
-11 20 -60 44 -109 25 -48 56 -124 71 -167 14 -44 33 -88 42 -98 8 -10 87 -40
174 -68 l159 -51 0 -109 0 -109 -159 -51 c-87 -28 -166 -58 -174 -68 -9 -10
-28 -54 -42 -98 -14 -43 -46 -119 -70 -167 -25 -49 -45 -98 -45 -109 0 -12 35
-88 77 -169 l78 -149 -78 -78 -77 -77 -149 77 c-81 43 -158 78 -170 78 -12 0
-61 -20 -109 -44 -48 -24 -124 -55 -168 -70 -45 -15 -89 -35 -99 -46 -9 -10
-39 -88 -65 -172 l-48 -153 -112 0 -112 0 -48 153 c-26 84 -56 162 -65 172
-10 11 -54 31 -99 46 -44 15 -120 46 -168 70 -48 24 -97 44 -109 44 -12 0 -89
-35 -170 -77 l-149 -78 -77 77 -78 78 78 149 c42 81 77 157 77 168 0 11 -19
58 -43 105 -24 47 -55 122 -70 168 -15 46 -34 92 -43 102 -9 9 -88 40 -175 68
l-159 51 0 109 0 109 159 51 c87 28 166 58 174 68 9 10 28 54 42 98 15 43 46
119 71 167 24 49 44 98 44 109 0 12 -35 88 -77 169 l-78 149 78 78 77 77 149
-77 c81 -43 158 -78 170 -78 12 0 54 18 94 39 40 22 115 54 167 71 52 18 103
39 112 48 10 8 38 81 63 161 26 80 48 152 50 159 3 8 35 12 114 12 l110 0 51
-160z"/>
<path d="M1704 2490 c-118 -47 -189 -152 -199 -295 -9 -119 -23 -171 -71 -268
-24 -48 -44 -96 -44 -107 0 -10 11 -32 24 -47 l24 -28 191 -3 190 -3 4 83 3
83 2 -83 2 -83 186 3 186 3 24 28 c32 38 31 54 -15 145 -50 98 -60 134 -71
255 -15 155 -65 244 -172 302 -71 39 -187 45 -264 15z m163 -161 c35 -13 72
-47 83 -76 5 -11 12 -56 15 -100 3 -43 15 -111 26 -151 10 -40 19 -74 19 -77
0 -3 -87 -5 -194 -5 l-194 0 20 62 c10 35 23 107 28 161 10 105 15 120 52 154
43 40 94 52 145 32z"/>
<path d="M1720 1629 c-270 -32 -450 -194 -570 -511 -22 -59 -40 -123 -40 -142
0 -40 25 -72 62 -81 13 -3 315 -4 671 -3 l649 3 19 24 c27 33 24 77 -11 172
-79 218 -211 389 -360 468 -87 46 -310 98 -310 72 0 -6 28 -12 63 -14 l62 -3
-62 -2 -62 -2 -4 -67 -3 -68 -2 67 -2 67 -67 4 -68 3 68 2 c37 1 67 7 67 12 0
11 -5 11 -100 -1z m235 -184 c47 -12 125 -47 125 -56 0 -5 6 -9 14 -9 24 0
139 -134 177 -206 65 -123 123 -109 -451 -109 -326 0 -500 3 -500 10 0 26 89
181 132 230 45 50 128 115 147 115 4 0 22 7 39 15 58 30 216 34 317 10z"/>
</g>
</svg>
